<?xml version="1.0" encoding="UTF-8"?><svg xmlns="http://www.w3.org/2000/svg" xmlns:xlink="http://www.w3.org/1999/xlink" height="506.1" preserveAspectRatio="xMidYMid meet" version="1.0" viewBox="0.0 -5.0 522.0 506.1" width="522.0" zoomAndPan="magnify"><g id="change1_1"><path d="M396.782,440.943c-5.245,4.603-10.498,9.211-16.091,13.385c-10.733,8.01-22.606,14.337-33.94,21.471 c-9.932,6.251-19.5,13.154-30.032,18.331c-10.531,5.178-31.474,7.001-43.069,5.187c-60.241-9.428-124.491-39.874-179.271-66.649 c-15.834-34.249-40.763-63.375-60.313-95.647C22.894,318.577,7.508,285.757,0,265.542c7.156-38.556,26.799-73.478,46.14-107.59 c9.612-16.953,27.307-50.26,41.819-63.268c39.277-35.208,78.246-91.804,130.928-94.44c105.124-5.259,203.96,75.52,248.28,139.978 c35.274,51.302,48.925,102.122,54.837,134.415c-3.413,8.057-6.826,16.114-10.239,24.171c-34.867,35.146-55.096,63.368-67.27,83.128 C443.958,382.806,423.055,417.889,396.782,440.943z" fill="#E2473B"/></g></svg>