<?xml version="1.0" encoding="UTF-8" standalone="no"?><svg xmlns="http://www.w3.org/2000/svg" xmlns:xlink="http://www.w3.org/1999/xlink" fill="#000000" height="1713.2" preserveAspectRatio="xMidYMid meet" version="1" viewBox="315.2 212.1 1490.9 1713.2" width="1490.9" zoomAndPan="magnify"><g><g id="change1_1"><path d="M 659.097656 863.269531 L 658.71875 862.589844 L 658.644531 862.589844 Z M 659.097656 863.269531" fill="#5b3e4a"/></g><g id="change1_2"><path d="M 1462.601562 862.671875 C 1462.378906 863.191406 1462.078125 863.570312 1461.710938 864.101562 L 1462.839844 862.519531 L 1462.691406 862.589844 L 1462.601562 862.671875" fill="#5b3e4a"/></g><g id="change2_1"><path d="M 1239.671875 872.605469 C 1178.238281 872.605469 1128.488281 833.867188 1128.488281 762.042969 C 1128.488281 755.175781 1129.085938 748.558594 1129.925781 741.996094 C 1157.886719 724.128906 1238.980469 687.125 1305.753906 657.726562 C 1333.03125 681.394531 1350.828125 719.230469 1350.828125 762.042969 C 1350.828125 833.867188 1301.089844 872.605469 1239.671875 872.605469 Z M 1125.925781 1017.082031 L 1125.476562 1017.691406 C 1117.636719 1027.5625 1098.726562 1033.824219 1077.6875 1036.082031 C 1072.117188 1036.691406 1066.308594 1037.0625 1060.65625 1037.0625 C 1056.585938 1037.0625 1052.515625 1036.992188 1048.527344 1036.691406 C 1026.296875 1035.171875 1006.316406 1029.003906 999.3125 1017.761719 L 998.859375 1017.082031 C 984.152344 991.089844 1030.207031 916.402344 1060.65625 913.53125 C 1061.257812 913.460938 1061.785156 913.460938 1062.386719 913.460938 C 1092.765625 913.460938 1143.867188 992.519531 1125.925781 1017.082031 Z M 881.652344 872.605469 C 820.226562 872.605469 770.488281 833.867188 770.488281 762.042969 C 770.488281 717.71875 789.558594 678.535156 818.570312 655.089844 C 873.816406 679.214844 946.699219 711.765625 990.191406 734.226562 C 991.921875 743.203125 992.824219 752.46875 992.824219 762.042969 C 992.824219 833.867188 943.082031 872.605469 881.652344 872.605469 Z M 1060.65625 212.144531 C 809.679688 212.144531 606.183594 415.644531 606.183594 666.621094 C 606.183594 724.058594 615 788.347656 643.414062 839.070312 C 658.109375 865.292969 686.144531 879.082031 710.421875 894.761719 C 737.324219 912.183594 762.195312 933.355469 784.507812 956.34375 C 791.363281 963.355469 798 970.660156 804.332031 978.199219 C 835.757812 1015.734375 834.175781 1063.671875 834.25 1109.640625 C 834.25 1123.433594 834.175781 1137.300781 834.175781 1151.171875 C 834.175781 1182.753906 859.800781 1208.371094 891.378906 1208.371094 C 922.957031 1208.371094 948.585938 1182.753906 948.585938 1151.171875 C 948.585938 1182.753906 974.128906 1208.371094 1005.796875 1208.371094 C 1031.796875 1208.371094 1053.726562 1190.972656 1060.65625 1167.152344 C 1061.9375 1163.011719 1062.695312 1158.703125 1062.917969 1154.261719 C 1064.507812 1184.402344 1089.367188 1208.371094 1119.898438 1208.371094 C 1151.546875 1208.371094 1177.089844 1182.753906 1177.089844 1151.171875 C 1177.089844 1182.753906 1202.726562 1208.371094 1234.304688 1208.371094 C 1265.964844 1208.371094 1291.519531 1182.753906 1291.519531 1151.171875 C 1291.519531 1104.824219 1289.023438 1058.773438 1298 1013.171875 C 1310.054688 951.746094 1374.71875 918.734375 1422.734375 888.28125 C 1438.636719 878.179688 1454.535156 867.566406 1466.746094 853.082031 C 1486.265625 829.871094 1494.257812 799.570312 1502.023438 770.9375 C 1511.210938 737.015625 1515.136719 701.746094 1515.136719 666.621094 C 1515.136719 415.644531 1311.648438 212.144531 1060.65625 212.144531" fill="#c1ff72"/></g><g id="change3_1"><path d="M 1239.671875 872.605469 C 1178.238281 872.605469 1128.488281 833.867188 1128.488281 762.042969 C 1128.488281 755.175781 1129.085938 748.558594 1129.925781 741.996094 C 1157.886719 724.128906 1238.980469 687.125 1305.753906 657.726562 C 1333.03125 681.394531 1350.828125 719.230469 1350.828125 762.042969 C 1350.828125 833.867188 1301.089844 872.605469 1239.671875 872.605469 Z M 1060.65625 212.144531 L 1060.65625 913.53125 C 1061.257812 913.460938 1061.785156 913.460938 1062.386719 913.460938 C 1092.765625 913.460938 1143.867188 992.519531 1125.925781 1017.082031 L 1125.476562 1017.691406 C 1117.636719 1027.5625 1098.726562 1033.824219 1077.6875 1036.082031 C 1072.117188 1036.691406 1066.308594 1037.0625 1060.65625 1037.0625 L 1060.65625 1167.152344 C 1061.9375 1163.011719 1062.695312 1158.703125 1062.917969 1154.261719 C 1064.507812 1184.402344 1089.367188 1208.371094 1119.898438 1208.371094 C 1151.546875 1208.371094 1177.089844 1182.753906 1177.089844 1151.171875 C 1177.089844 1182.753906 1202.726562 1208.371094 1234.304688 1208.371094 C 1265.964844 1208.371094 1291.519531 1182.753906 1291.519531 1151.171875 C 1291.519531 1104.824219 1289.023438 1058.773438 1298 1013.171875 C 1310.054688 951.746094 1374.71875 918.734375 1422.734375 888.28125 C 1438.636719 878.179688 1454.535156 867.566406 1466.746094 853.082031 C 1486.265625 829.871094 1494.257812 799.570312 1502.023438 770.9375 C 1511.210938 737.015625 1515.136719 701.746094 1515.136719 666.621094 C 1515.136719 415.644531 1311.648438 212.144531 1060.65625 212.144531" fill="#c1ff72"/></g><g id="change2_2"><path d="M 573.902344 1898.507812 C 515.78125 1925.300781 446.96875 1899.910156 420.171875 1841.789062 C 404.09375 1806.898438 406.953125 1768.289062 424.175781 1737.140625 C 389.304688 1730.007812 358.089844 1707.089844 342.011719 1672.21875 C 315.226562 1614.089844 340.621094 1545.289062 398.742188 1518.488281 C 456.863281 1491.699219 525.683594 1517.085938 552.464844 1575.21875 C 555.941406 1582.738281 558.460938 1590.308594 560.195312 1598.027344 L 1503.023438 1163.445312 C 1498.304688 1157.128906 1494.167969 1150.277344 1490.703125 1142.765625 C 1463.910156 1084.636719 1489.40625 1015.789062 1547.433594 989.039062 C 1605.550781 962.246094 1674.371094 987.632812 1701.152344 1045.757812 C 1717.242188 1080.648438 1714.46875 1119.207031 1697.242188 1150.355469 C 1732.121094 1157.488281 1763.234375 1180.449219 1779.3125 1215.335938 C 1806.105469 1273.457031 1780.707031 1342.269531 1722.582031 1369.058594 C 1664.5625 1395.808594 1595.632812 1370.457031 1568.851562 1312.335938 C 1566.914062 1308.128906 1565.382812 1303.738281 1564 1299.386719 L 624.050781 1732.628906 C 626.449219 1736.5 628.683594 1740.566406 630.625 1744.777344 C 657.414062 1802.910156 632.023438 1871.730469 573.902344 1898.507812" fill="#c1ff72"/></g><g id="change3_2"><path d="M 573.902344 1898.507812 C 515.78125 1925.300781 446.96875 1899.910156 420.171875 1841.789062 C 404.09375 1806.898438 406.953125 1768.289062 424.175781 1737.140625 L 1697.242188 1150.355469 C 1732.121094 1157.488281 1763.234375 1180.449219 1779.3125 1215.335938 C 1806.105469 1273.457031 1780.707031 1342.269531 1722.582031 1369.058594 C 1664.5625 1395.808594 1595.632812 1370.457031 1568.851562 1312.335938 C 1566.914062 1308.128906 1565.382812 1303.738281 1564 1299.386719 L 624.050781 1732.628906 C 626.449219 1736.5 628.683594 1740.566406 630.625 1744.777344 C 657.414062 1802.910156 632.023438 1871.730469 573.902344 1898.507812" fill="#c1ff72"/></g><g id="change2_3"><path d="M 1547.433594 1898.507812 C 1605.550781 1925.300781 1674.371094 1899.910156 1701.152344 1841.789062 C 1717.242188 1806.898438 1714.371094 1768.289062 1697.140625 1737.140625 C 1732.023438 1730.007812 1763.234375 1707.089844 1779.3125 1672.21875 C 1806.105469 1614.089844 1780.707031 1545.289062 1722.582031 1518.488281 C 1664.476562 1491.699219 1595.632812 1517.085938 1568.863281 1575.21875 C 1565.382812 1582.738281 1562.878906 1590.308594 1561.140625 1598.027344 L 618.304688 1163.445312 C 623.035156 1157.128906 627.167969 1150.277344 630.625 1142.765625 C 657.425781 1084.636719 631.929688 1015.789062 573.902344 989.039062 C 515.78125 962.246094 446.96875 987.632812 420.171875 1045.757812 C 404.09375 1080.648438 406.851562 1119.207031 424.078125 1150.355469 C 389.207031 1157.488281 358.09375 1180.449219 342.011719 1215.335938 C 315.226562 1273.457031 340.621094 1342.269531 398.742188 1369.058594 C 456.761719 1395.808594 525.683594 1370.457031 552.472656 1312.335938 C 554.414062 1308.128906 555.945312 1303.738281 557.34375 1299.386719 L 1497.273438 1732.628906 C 1494.878906 1736.5 1492.640625 1740.566406 1490.703125 1744.777344 C 1463.910156 1802.910156 1489.316406 1871.730469 1547.433594 1898.507812" fill="#c1ff72"/></g><g id="change3_3"><path d="M 1547.441406 1898.507812 C 1605.542969 1925.300781 1674.371094 1899.910156 1701.160156 1841.789062 C 1717.238281 1806.898438 1714.382812 1768.289062 1697.148438 1737.136719 L 424.078125 1150.355469 C 389.207031 1157.484375 358.09375 1180.445312 342.015625 1215.335938 C 315.226562 1273.457031 340.621094 1342.265625 398.742188 1369.054688 C 456.761719 1395.804688 525.683594 1370.457031 552.476562 1312.335938 C 554.414062 1308.125 555.945312 1303.734375 557.34375 1299.386719 L 1497.273438 1732.628906 C 1494.882812 1736.5 1492.648438 1740.566406 1490.710938 1744.777344 C 1463.917969 1802.910156 1489.320312 1871.730469 1547.441406 1898.507812" fill="#c1ff72"/></g></g></svg>