<?xml version="1.0" encoding="UTF-8" standalone="no"?><svg xmlns="http://www.w3.org/2000/svg" xmlns:xlink="http://www.w3.org/1999/xlink" fill="#000000" height="494.8" preserveAspectRatio="xMidYMid meet" version="1" viewBox="0.0 0.0 1500.0 494.8" width="1500" zoomAndPan="magnify"><g fill="#ff3131" id="change1_1"><path d="M1500,0h-41.59S54.3,0,54.3,0H12.49S0,0,0,0V417.98c.72,.01,1.41,0,2.04-.09,2.73-.37,4.79-1.59,6.68-3.21,2.51-2.17,5.78-6.12,6.88-9.9,1.1-3.78,2.87-8.8,2.03-16.75-.84-7.95-5.34-17.76-6.76-28.65-1.41-10.89-2.57-21.45-2.73-41.51-.16-20.06,.68-49.63,1.42-75.14,.07-2.5,.14-4.94,.21-7.37,.28-5.18,.57-9.9,.87-13.93,1.06-14.11,2.21-20.07,4.22-26.02,.02-.05,.04-.1,.05-.16,.12-.29,.24-.59,.37-.88,2.29-5.06,5.66-9.56,9.5-13.36,2.01-1.78,4.75-3.86,8.16-5.34,4.73-2.05,10.73-2.93,16.06-1.7,6.84,2.81,13.2,8,17.18,15.67,1.03,2.29,1.96,4.87,2.79,7.82,.46,1.6,.88,3.31,1.27,5.11,.14,.79,.26,1.58,.37,2.39,.94,7.05,.77,14.77,.53,21.85s-.54,13.49-1.11,19.11c-.58,5.63-1.43,10.46-3.24,16.65-1.81,6.2-4.58,13.74-5.56,20.79s-.17,13.58,2.59,19.21c2.76,5.63,7.47,10.34,12.92,12.45,5.44,2.11,11.62,1.62,16.71-2.21,5.09-3.83,9.09-11,10.48-18.5,1.39-7.5,.15-15.34-1.82-21.95-1.97-6.61-4.68-12.01-6.52-19.19-1.85-7.18-2.83-16.14-2.86-27.08-.03-10.93,.88-23.84,2.67-33.19,1.79-9.35,4.45-15.15,7.04-18.43s5.11-4.04,7.23-4.3c2.11-.25,3.82,0,6.31,.65,.84,.22,1.77,.49,2.75,.77,5.07,1.75,10.36,3.02,15.06,3.4,1.05,.08,2.07,.11,3.06,.12,1.75,.18,3.5,.29,5.32,.29,3.54,0,7.36-.41,11.22,.08,1.04,.13,2.07,.33,3.07,.58,2.64,.79,4.96,1.93,6.5,3.33,1.03,.94,1.7,1.99,2.16,3.25,.69,1.89,.9,4.24,1.1,7.35,.02,.35,.04,.7,.07,1.07,.36,5.83,.83,14.17,1.31,28.33,.48,14.17,.95,34.17,1.43,52.74s.95,35.71,0,47.02c-.95,11.31-3.33,16.78-2.62,21.55,.71,4.76,4.52,8.81,8.93,9.76,4.41,.95,9.41-1.19,12.14-5.12,2.74-3.93,3.21-9.64,1.9-13.93-1.31-4.28-4.41-7.14-5.83-21.55-1.43-14.41-1.19-40.36-.59-61.07,.6-20.71,1.55-36.19,3.69-45,2.14-8.81,5.48-10.95,8.33-14.88s5.24-9.64,12.5-12.38c2.55-.96,5.71-1.55,9.11-2.08,6.33,.28,7.38,.19,12.61-.7,6.03-1.03,18.1-3.09,27.32,2.31s15.63,18.27,22.35,24.65c6.72,6.38,13.75,6.28,18.97,4.22,5.22-2.06,8.62-6.06,10.99-2.68,2.37,3.38,3.72,14.16,4.56,25.95,.84,11.79,1.18,24.58,.15,35.99-1.03,11.41-3.42,21.43-2.95,29.61,.47,8.17,3.79,14.49,8.18,15.46,4.39,.97,9.83-3.41,10.88-10.57,1.05-7.16-2.3-17.11-3.81-26.46-1.51-9.35-1.17-18.1,.35-24,1.52-5.89,4.21-8.92,6.73-12.63,2.52-3.7,4.88-8.08,7.83-13.81,2.95-5.72,6.48-12.79,11.03-13.3s10.1,5.56,13.38,13.47c3.28,7.91,4.29,17.68,3.79,29.8-.06,1.52-.15,3.07-.25,4.65-.52,7.93-1.48,16.68-2.09,25.82-.24,3.65-.43,7.37-.52,11.11-.34,14.98,1.01,30.47,1.85,44.62s1.18,26.94,0,36.7c-1.18,9.76-3.87,16.5-2.19,22.39,1.68,5.89,7.74,10.94,12.79,10.61,5.05-.34,9.09-6.06,10.27-14.48,1.18-8.42-.51-19.53-3.03-31.65-2.53-12.12-5.89-25.25-5.89-41.58,0-16.33,3.37-35.86,6.73-53.71s6.73-34.01,8.42-47.31c1.68-13.3,1.68-23.74,5.22-30.64,3.54-6.9,10.61-10.27,16.33-13.97,1.12-.72,2.18-1.46,3.25-2.19,3.8-2.13,7.42-4.16,11.68-5.83,3.7-1.45,7.89-2.61,12.29-3.5,3.86-.63,8.08-1.17,12.43-1.67,4.64-.3,9-.17,12.18,.71,4.52,1.25,6.66,3.99,7.97,7.68,1.31,3.69,1.79,8.33,2.2,14.58,.21,3.13,.4,6.65,.42,10.2,.01,2.66-.08,5.34-.34,7.86-.09,.84-.19,1.67-.32,2.47-.25,1.61-.59,3.12-1,4.58-1.21,4.37-3.02,8.17-4.9,12.15-2.19,4.64-4.47,9.5-4.72,14.51-.04,.72-.03,1.44,.02,2.16,.42,5.77,3.87,11.73,8.69,15.54,4.82,3.81,11.01,5.48,16.9,5.12,5.89-.36,11.49-2.74,15.18-6.43,3.69-3.69,5.48-8.69,5.77-13.93,.11-1.96,.01-3.96-.29-6-.51-3.4-1.6-6.92-3.28-10.6-2.68-5.89-6.84-12.2-8.81-17.56-.98-2.68-1.41-5.12-1.45-7.43-.04-2.31,.32-4.5,.91-6.67,.89-3.26,2.32-6.49,4.66-9.98,.78-1.16,1.66-2.36,2.66-3.59,.9-1.11,1.89-2.26,2.94-3.4,1.76-1.9,3.68-3.8,5.61-5.52,.02-.02,.03-.02,.04-.04,1.52-1.22,4.55-3.66,7.59-5.24,.54-.28,1.08-.52,1.61-.75,2.44-1.03,4.79-1.53,6.71-1.6,.03,0,.07,0,.1,0,2.35-.06,4.02,.54,5.83,1.64,1.82,1.1,3.78,2.71,5.18,4.76s2.23,4.55,2.89,6.96c.65,2.41,1.13,4.73,1.73,7.8,.6,3.07,1.31,6.88,4.4,8.84,1.55,.98,3.69,1.5,5.87,1.49,.01,0,.02,0,.03,0,2.17-.02,4.37-.57,6.06-1.73,1.02-.7,1.86-1.62,2.56-2.65,1.64-2.37,2.6-5.31,3.68-7.39,.66-.91,1.52-2,2.52-2.9,.33-.3,.68-.58,1.05-.83,1.22-.83,2.59-1.28,4.07-1.32,.07,0,.13,0,.2,0,.03,0,.07,0,.11,0,.92,.05,1.84,.24,2.78,.56,.59,.2,1.2,.47,1.82,.78,.37,.19,.76,.4,1.15,.63,.27,.16,.54,.31,.82,.49,1.25,.93,2.45,2.12,3.53,3.61,.77,1.07,1.48,2.28,2.1,4.02,.17,.48,.34,1.01,.5,1.58,.81,2.93,1.43,7.13,1.78,13.69,.05,.83,.09,1.7,.12,2.61,.04,.89,.07,1.83,.1,2.79,0,.03,0,.06,0,.09,.03,.96,.05,1.96,.07,2.98,0,.02,0,.04,0,.06,.02,1.03,.04,2.09,.05,3.18,0,.03,0,.06,0,.09,.02,1.65,.04,3.37,.05,5.14,0,.01,0,.03,0,.04,.08,13.74-.17,30.65-.11,45.35,0,2.52,.03,4.98,.05,7.37,0,.08,0,.15,0,.23,.04,3.53,.09,6.93,.15,10.22,0,.12,0,.24,0,.35,.22,12.3,.51,22.93,.45,32.63-.08,14.19-.92,26.39-2.34,33.71-1.43,7.32-3.45,9.76-4.4,14.01-.96,4.25-.85,10.29,1.72,14.79,.29,.5,.61,.98,.95,1.44,2.74,3.66,7.16,5.93,11.26,5.5,4.61-.49,8.81-4.41,10.79-8.56,1.88-3.96,1.74-8.13,1-11.93-.04-.19-.07-.38-.11-.57-.34-1.61-.8-3.13-1.28-4.63-.7-2.19-1.47-4.32-2.12-6.49-1.06-3.55-1.78-7.24-2.05-25.19,0-.58-.02-1.17-.02-1.78s-.01-1.23-.02-1.87c-.03-2.55-.05-5.34-.06-8.3,0,0,0-.01,0-.02-.08-19.99,.19-47.95,.72-66.52,.63-22.01,1.64-30.85,2.44-36.37,.8-5.51,1.39-7.7,2.53-9.13,1.14-1.43,2.82-2.1,4.46-2.4,1.02-.18,2.03-.21,3.05-.13,.35,.03,.71,.07,1.07,.12,7.32,2.64,15.12,4.21,23.11,3.82,4.83-.24,9.72-1.2,14.53-2.64,1.44-.43,2.87-.9,4.29-1.42,1.52-.55,3.03-1.14,4.52-1.77,9.36-3.98,17.92-9.4,24.32-14.46,.67-.53,1.31-1.05,1.93-1.57,.12-.1,.24-.2,.36-.3,.64-.54,1.25-1.07,1.84-1.6,.97,.74,1.92,1.49,2.86,2.27,28.71,23.92,39.05,67.7,39.38,110.7,.23,29.3-4.18,58.22-9.21,83.09-.37,1.85-.75,3.67-1.13,5.48-.27,1.28-.54,2.54-.81,3.8-1.74,8.1-3.5,15.69-5.11,22.59-1.61,6.91-3.07,13.15-4.33,18.83-.39,1.75-.76,3.45-1.1,5.1-.07,.34-.14,.68-.21,1.02-3.21,15.5-4.49,26.67-2.37,36.59,3.11,14.57,13.52,26.47,24.95,25.89,3.35-.17,6.78-1.42,10.04-3.45,.46-.29,.92-.59,1.37-.91,.22-.15,.43-.31,.65-.47,7-5.19,12.86-13.95,14.71-23.32,2.87-14.5-3.84-30.45-7.86-49.17-4.02-18.72-5.34-40.23-4.03-59.17,1.31-18.94,5.27-35.3,7.03-55.27,.99-11.22,1.29-23.57,1.43-35.84v-.09c.05-4.07,.08-8.13,.11-12.13v-.07c.02-2.65,.04-5.27,.07-7.85,.03-2.65,.07-5.26,.12-7.81,.01-.66,.03-1.32,.04-1.98,.03-1.18,.06-2.35,.1-3.51,.02-.7,.05-1.4,.08-2.09,.04-1.1,.1-2.19,.16-3.27,.04-.74,.09-1.47,.14-2.2,.07-1.03,.15-2.05,.24-3.06,.01-.12,.02-.23,.03-.35,.96-10.23,3.1-19.35,8.24-27.25,1.44-2.21,3.11-4.32,5.05-6.33,7.55-7.82,19.78-14.35,34.67-19.23,1.01-.21,2.05-.43,3.23-.66,2.91-.57,6.95-1.29,11.55-1.89,1-.13,2.02-.25,3.06-.37,.13-.01,.26-.03,.39-.04,1.08-.12,2.17-.22,3.29-.32,.1,0,.21-.02,.31-.03,12.32-1.03,26.43-.52,34.18,5.56,12.46,9.76,13.16,33.17,15.88,55.98,2.54,21.39,6.84,42.26,6.82,59.49,0,1.15-.02,2.28-.06,3.4,0,.13-.02,.25-.02,.38-.74,17.66-6.75,31.03-11.43,44.41-4.71,13.47-8.08,26.94-6.06,38.05s9.43,19.87,17.85,19.53c6.67-.27,13.95-6.24,17.87-14.23,1.03-2.1,1.84-4.33,2.33-6.64,2.21-10.42-1.79-22.32-2.03-34.03-.02-.78-.01-1.56,0-2.34,.31-11.47,4.89-22.66,6.41-34.61,.13-1.03,.25-2.06,.33-3.1,0-.09,0-.19,.02-.28,.94-13.05-2.38-27.1-2.96-42.48-.29-7.74,.11-15.83,1.17-24.13,1.06-8.3,2.78-16.83,5.13-25.46,.6-2.2,1.24-4.4,1.95-6.59,1.04-2.81,2.31-6,3.76-9.03,.48-1,.98-1.97,1.49-2.92,2.03-3.69,4.32-6.75,6.77-9.23,.02-.02,.03-.04,.05-.05,1.48-1.49,3.02-2.78,4.61-3.87,4.23-2.92,8.75-4.46,13.1-4.7,4.35-.24,8.51,.83,13.69,3.33,4.85,2.34,10.6,5.94,14.05,11.34,.23,.36,.45,.73,.66,1.1,3.33,6.01,3.81,14.11,3.57,20.83-.12,3.36-.42,6.38-.52,9.15-.03,.69-.04,1.37-.04,2.03,.01,1.98,.19,3.84,.68,5.6,1.31,4.7,4.88,8.75,9.17,9.29,.27,.03,.54,.05,.81,.06,.65,.02,1.32-.05,1.98-.18,3.49-.67,6.94-3.18,8.58-6.37,1.04-2.02,1.35-4.32,1.35-6.77,0-.61-.02-1.24-.06-1.87-.04-.63-.08-1.27-.14-1.92-.11-1.3-.25-2.62-.37-3.96-.48-5.36-.59-10.95-.89-15.65-.3-4.7-.77-8.51-.12-11.55,.46-2.12,1.48-3.85,3.08-5.1,.69-.54,1.48-.99,2.39-1.33,2.19-.82,5.04-1.05,7.78-1.56,1.05-.2,2.08-.43,3.06-.76,.12-.04,.24-.1,.36-.14,3.34-1.23,5.96-3.52,7.79-5.87,.36-.47,.69-.94,1.01-1.4,.41-.6,.79-1.19,1.15-1.75,.6-.92,1.18-1.76,1.83-2.41,.03-.03,.06-.07,.09-.1,.2-.19,.4-.37,.62-.52,1.73-1.25,4.11-1.25,6.37-.71,2.26,.54,4.4,1.61,6.43,2.98,1.73,1.17,3.37,2.56,4.71,4.17,1.18,1.78,2.01,3.79,2.65,6.04,2.13,7.47,2.13,17.56,3.2,31.39,1.07,13.83,3.31,32.12,4.14,48.18,.83,16.06,.27,31-1.93,43.7-2.19,12.7-6.03,23.53-5.96,31.47,.06,7.94,4.32,13.35,9.94,15.41,3.51,1.28,7.61,1.33,11.03-.23,.02,0,.04-.02,.06-.03,1.01-.47,1.95-1.07,2.81-1.83,.86-.77,1.63-1.68,2.27-2.77,3.43-5.79,3.15-16.25,1.23-25.77-1.92-9.52-5.48-18.12-6.58-33.99-1.1-15.87,.27-39.03,.96-56.21,.69-17.18,.69-28.39,1.78-35.48,.91-5.87,2.57-8.92,5.43-10.77,.37-.24,.77-.46,1.18-.66,.01,0,.02-.01,.03-.02,.24-.12,.49-.23,.75-.33,.88-.36,1.87-.66,2.9-.94,.54-.14,1.1-.28,1.67-.42,.52-.12,1.04-.24,1.57-.36,1.52-.33,3.08-.67,4.64-1.08,1.51-.4,3.01-.85,4.43-1.46,.07-.03,.13-.06,.19-.09,4.35-1.89,8.01-5.04,12.28-7.72,.62-.39,1.25-.77,1.9-1.13,.24-.14,.49-.27,.74-.4,.41-.22,.82-.43,1.25-.64,.13-.06,.27-.12,.4-.19,2.63-1.24,5.59-2.27,9.19-3.11,2.85-.67,6.1-1.22,9.89-1.67h13.67c6.25,.6,12.4,1.15,16.86,2.39,7.25,2,10.11,5.81,12.13,9.38,2.02,3.57,3.21,6.9,3.81,11.07,.6,4.17,.6,9.17,.6,17.38s0,19.64,.12,29.76c.02,2.1,.05,4.14,.08,6.12-.06,3.86-.09,7.64-.07,11.21-.11,2.96-.33,5.66-.72,8.03-1.07,6.43-3.45,10.48-4,15.28-.55,4.8,.74,10.35,4.16,12.91,1.5,1.12,3.4,1.67,5.31,1.62,2.46-.05,4.93-1.08,6.58-3.11,2.93-3.61,3.23-10.39,1.96-15.8-1.27-5.41-4.13-9.46-4.96-20.89-.83-11.43,.36-30.24,.71-43.69s-.12-21.55,1.67-25.59c1.26-2.86,3.65-3.7,6.08-4.49,1.01-.33,2.02-.65,2.97-1.1,.4-.19,.79-.41,1.17-.65,2.64-1.64,4.74-4.13,6.93-5.07,.62-.27,1.26-.41,1.88-.42,1.86-.04,3.6,1.08,4.67,3.4,1.43,3.09,1.67,8.33,2.14,16.55s1.2,19.88,1.08,27.97-1.07,12.86-.86,17.31c.21,4.46,1.58,8.6,4.13,10.12,1.11,.66,2.45,.82,3.73,.47,.32-.09,.64-.22,.95-.37,.04-.02,.08-.04,.12-.06,1.23-.65,2.33-1.81,3.02-3.5,1.42-3.48,1.1-9.19,.3-14.09-.09-.53-.18-1.06-.28-1.57-.99-5.2-2.42-9.01-2.79-15.09-.37-6.07,.37-14.88,.84-20.48,.48-5.6,.71-8.22,2.5-10.36s5.12-3.81,7.86-5.71c2.74-1.9,4.88-4.05,8.1-5.57s7.97-2.52,13.69-3.12c.83-.09,1.74-.15,2.62-.22l6.15,.21c2.19,.08,5.16,.18,8.46,.47,.4,.03,.79,.07,1.2,.11,1.26,.12,2.56,.28,3.87,.47,.7,.1,1.4,.21,2.1,.33,1.39,.24,2.78,.53,4.15,.87,6.72,2.06,12.14,5.78,16.07,11.12,4.16,5.65,6.69,13.09,7.88,24.91,1.19,11.82,1.04,28.03,.89,38.52-.09,6.26-.17,10.46,.24,13.27-.2,14.28-.43,28.13-.84,38.02-.53,12.73-1.34,18.9-3,25.69-1.67,6.79-4.19,14.18-4.97,20.85-.78,6.67,.17,12.61,2.92,17,2.39,3.82,6.14,6.47,10.44,7.33,.14,.03,.27,.05,.41,.07,.51,.09,1.03,.16,1.56,.2,.05,0,.1,0,.15,0,5.07,.31,10.67-1.82,13.84-6.29,3.2-4.51,3.93-11.4,2.15-19.25-1.78-7.85-6.07-16.66-8.21-32.02-2.14-15.36-2.14-37.26-2.14-55.6,0-4.97,0-9.7,.05-14.15,.5-8.03,.69-16.75,1.44-22.71,1.21-9.67,6.17-13.87,9.78-16.9,.21-.12,.44-.26,.7-.42h0s.08-.05,.12-.07c.14-.09,.29-.18,.45-.27,.58-.32,1.16-.63,1.74-.95,4.76-2.62,9.52-5.71,13.21-9.76,3.69-4.05,6.31-9.05,8.33-12.62,0,0,0,0,0,0,1.31-2.31,4.37-4.73,7.04-6.28,2.38-.03,5.4,1.09,8.07,2.83,0,0,0,0,0,0,3.09,2.02,5.71,4.88,8.51,8.77,2.8,3.89,5.77,8.81,6.22,18.37,.45,9.56-1.62,23.77,2.14,31.46,1.88,3.85,5.22,6.06,8.57,6.54s6.71-.79,8.62-3.9c3.83-6.23,1.91-19.86,2.37-29.77,.12-1.6,.26-3.13,.42-4.6,1.02-7.33,3.57-12.41,6.97-16.97,1.52-2.03,3.21-3.97,5.09-5.64,.58-.46,1.25-.92,1.96-1.17,1.35-.48,2.81-.23,4.06,1.02,1.09,1.09,2.03,2.95,2.47,6.46,.13,2.57,.1,5.56,.18,8.7,.03,1,.06,2.02,.12,3.03,0,2.14,.02,4.19,.14,5.9,.31,4.52,1.31,6.65,2.58,8.83,.05,.08,.11,.17,.16,.25,.04,.09,.08,.19,.13,.27,.7,1.38,1.54,2.49,2.45,3.44,.66,.8,1.36,1.57,2.16,2.26,1.34,1.15,2.9,2.11,4.26,3.13,.2,.19,.41,.37,.63,.56,1.48,1.55,2.5,3.27,3.44,5.22,.24,.72,.46,1.44,.69,2.13,.69,2,1.56,3.71,2.4,5.12s1.62,2.54,2.6,3.54c.97,1,2.23,1.96,3.42,2.77,.46,.32,1.25,.64,1.53,.91,.81,.41,1.71,.77,2.68,.98,1.17,.25,2.43,.32,3.67,.17,.3-.03,.6-.08,.9-.15,.07-.02,.14-.04,.21-.05,.24-.06,.48-.13,.71-.21,.91-.3,1.78-.73,2.58-1.34,.3-.22,.58-.46,.85-.72,2.06-2.02,3.2-5.39,4.42-8.01,.1-.21,.2-.42,.3-.63,.16-.32,.32-.64,.49-.92,1.1-1.87,2.41-2.85,3.68-3.07,1.19-.06,2.34,.59,3.21,1.56,.33,.38,.63,.81,.88,1.37,.06,.13,.11,.27,.17,.4,.84,2.18,1.28,6.19,1.65,15.58,.37,9.45,.68,24.35,.93,40.38-.03,4.92-.07,10.26-.08,16.13-.05,18.45,.05,42.01-.73,58.07-.79,16.06-4.59,27.1-5.64,36.6-1.05,9.5-1.11,15.49,1.56,21.71,1.5,3.5,4.55,6.26,7.68,8.07,.08,.04,.15,.08,.23,.12,.5,.28,1,.53,1.5,.76,1.86,.86,3.66,1.37,5.09,1.49,.32,.02,.62,.02,.92,.03V0Z" opacity="0.99" style="isolation:isolate"/><path d="M810.34,302.77c5.19,.24,8.25-6.84,13.67-9.66s13.2-1.41,16.38-4.83c3.18-3.42,1.77-11.67-4.12-17.44s-16.26-9.07-24.63-5.89c-8.37,3.18-14.73,12.84-14.26,21.45,.47,8.6,7.78,16.15,12.96,16.38Z" opacity="0.99" style="isolation:isolate"/><path d="M422.18,281.2c.21,3.83,2.21,7.87,5.22,9.5s7.03,.86,10.8-.91c3.77-1.77,7.29-4.53,7.11-8.31-.19-3.78-4.08-8.58-8.07-10.64-3.99-2.06-8.06-1.39-10.88,.75h0c-2.82,2.15-4.39,5.77-4.17,9.6Z" opacity="0.99" style="isolation:isolate"/><path d="M1387.31,356.95c-.74,4.45-.09,9.81,2.82,12.53,2.91,2.72,8.07,2.79,10.81,.69,2.74-2.09,3.06-6.35,2.86-10.36-.2-4.01-.9-7.78-.9-10.85,0-3.06,.71-5.42,1.65-7.9,.94-2.47,2.12-5.07,2.36-7.31,.24-2.24-.47-4.12,0-7.78s2.12-9.08,.74-14.7c-1.38-5.62-5.79-11.44-9.56-18.75-3.77-7.31-6.9-16.1-7.74-24.7-.83-8.6,.64-17,.89-19.46,.25-2.46-.73,1.01-1.45,4.31s-1.18,6.43-1.19,12.19h0c-.01,5.76,.43,14.16,3.83,22.73,3.4,8.56,9.76,17.28,10.24,26.95,.47,9.66-4.95,20.27-8.72,27.34s-5.89,10.61-6.63,15.06Z" opacity="0.99" style="isolation:isolate"/><path d="M664.09,245.02c-2.48,7.31-2,12.49,.35,15.67,2.36,3.18,6.6,4.36,10.13,6.84,3.53,2.47,6.36,6.25,9.78,8.25,3.42,2,7.42,2.24,9.66-.12,2.24-2.36,2.71-7.31,1.06-12.14-1.65-4.83-5.42-9.55-6.84-14.85-1.41-5.3-.47-11.2-1.89-16.26-1.41-5.07-5.19-9.31-9.78-6.72h0c-4.6,2.59-10.02,12.02-12.49,19.33Z" opacity="0.99" style="isolation:isolate"/><path d="M541.08,261.42c-.58,3.33,1.42,7,2.31,10.31,.89,3.31,.32,10.87,2.74,13.12,2.42,2.25,7.64,1.5,11.17-.46,3.53-1.96,5.36-5.13,7.78-6.88,2.42-1.75,5.42-2.08,7.33-4.08,1.92-2,2.75-5.67,.92-9.67-1.83-4-6.33-8.33-11-10.33-4.67-2-9.5-1.67-13.5,0h0c-4,1.67-7.17,4.67-7.75,8Z" opacity="0.99" style="isolation:isolate"/><path d="M528.37,314.38c-2.75,3.24-3.58,7.6-6.46,11.43-2.89,3.83-7.84,7.13-10.78,10.9-2.95,3.77-3.89,8.01-9.84,13.17-5.95,5.16-16.91,11.22-25.48,14.08-8.57,2.86-14.76,2.51-19.18,5.33-4.42,2.83-7.07,8.84-4.98,13.67s8.93,8.49,13.4,7.34c4.48-1.15,6.6-7.1,9.43-9.13,2.83-2.03,6.36-.15,8.37-2.39s2.47-8.6,6.13-13.08c3.65-4.48,10.49-7.07,15.06-11.83,4.57-4.76,6.86-11.68,9.88-16.01,3.02-4.33,6.76-6.07,9.34-9.75,2.58-3.68,3.99-9.31,6.85-12.89,2.86-3.58,7.16-5.11,9.8-10.99,2.64-5.88,3.61-16.1,3.43-16.38-.18-.27-1.52,9.4-4.52,15.29-3.01,5.89-7.68,8-10.43,11.24Z" opacity="0.99" style="isolation:isolate"/><path d="M248.28,273.19c6.15,1.61,13.76-1.29,17.71-8.08,3.95-6.78,4.24-17.45,2.05-25.2-2.19-7.75-6.88-12.6-11.51-14.15-4.63-1.55-9.2,.19-13.56,.52-4.36,.33-8.5-.76-12.8,1.6s-8.76,8.17-8.35,13.98c.41,5.81,5.67,11.63,10.65,17.6,4.98,5.98,9.66,12.12,15.81,13.73Z" opacity="0.99" style="isolation:isolate"/><path d="M1119.51,328.72c-3.27,5.92-4.77,16.36-1.08,23.54,3.69,7.18,12.58,11.08,21.24,15.4,8.67,4.31,17.11,9.03,24.58,6.96,7.47-2.07,13.97-10.92,14.38-22.27s-5.25-25.22-11.94-33.68c-6.69-8.46-14.41-11.52-20.23-10.4-5.81,1.12-9.72,6.43-14.19,9.79-4.47,3.35-9.5,4.75-12.77,10.67Z" opacity="0.99" style="isolation:isolate"/><path d="M1269.7,278.74c4.84,1.78,8.39-2.37,11.26-6.42s5.04-8,4.15-12.25c-.89-4.25-4.84-8.79-6.72-13.92-1.88-5.14-1.68-10.86-5.04-12.84-3.36-1.97-10.27-.2-13.23,2.47-2.96,2.67-1.98,6.22-2.57,10.67s-2.76,9.77-.79,16.29c1.97,6.52,8.1,14.22,12.94,16Z" opacity="0.99" style="isolation:isolate"/><path d="M963.38,245.97c-1.11-3.59-5.62-5.81-10.27-5.08-4.65,.74-9.44,4.44-12.05,8.45h0c-2.61,4.01-3.02,8.32-1.62,12.8,1.41,4.48,4.64,9.13,8.41,12.54,3.76,3.42,8.05,5.61,11.74,4.3,3.69-1.31,6.77-6.12,6.73-9.96-.05-3.84-3.23-6.71-3.68-10.62-.45-3.91,1.84-8.85,.73-12.44Z" opacity="0.99" style="isolation:isolate"/><path d="M94.81,390.23c5.13,.69,9.68,2.07,11.85-.49s1.97-9.09,.3-14.32c-1.68-5.23-4.84-9.18-8.59-10.96-3.75-1.78-8.1-1.38-12.84,.89-4.74,2.27-9.88,6.42-11.16,10.76-1.28,4.35,1.28,8.89,5.43,11.16,4.15,2.27,9.88,2.27,15.01,2.96Z" opacity="0.99" style="isolation:isolate"/><path d="M1120.72,191.69c-3.98,.98-6.35,2.79-6.91,5.31-.56,2.51,.7,5.73,1.33,8.17,.63,2.44,.63,4.12,3,4.82,2.38,.7,7.12,.42,9.64-.98,2.51-1.4,2.79-3.91,3.77-7.19,.98-3.28,2.65-7.33,.7-9.29-1.95-1.95-7.54-1.81-11.52-.84Z" opacity="0.99" style="isolation:isolate"/><path d="M1438.58,279.65c1.5,1.42,2.21,2.56,4.31,2.14,2.1-.42,5.59-2.39,6.91-4.28,1.32-1.89,.48-3.7-.16-6.29-.64-2.59-1.07-5.97-3.37-6.56s-6.49,1.6-9.1,3.76c-2.61,2.16-3.65,4.28-3.02,6.19,.63,1.92,2.94,3.62,4.44,5.04Z" opacity="0.99" style="isolation:isolate"/></g><g id="change2_1"><path d="M759.33,468.49c-.91,3.03-2.58,8.13-6.99,12.37-1.73,1.66-7.14,6.87-12.24,5.13-1.69-.58-4.07-2.16-4.45-4.45-.83-4.97,8.8-7.19,14.16-14.76,5.8-8.2,2.16-16.39,.8-37.83-.46-7.23-.78-17.99,.21-31.34,.55,4.11,1.36,10.2,2.33,17.62,.98,7.55,1.11,9.13,1.45,11.23,3.32,20.55,8.68,28.88,4.73,42.03Zm16.58-293.77c-3.4,2.51-12.46,9.38-17.86,21.66-2.43,5.54-3.28,10.27-3.81,13.86-3.31,22.4-.12,41.16,1.17,61.16,.53,8.21,.97,20.14,.27,34.79,.55-3.75,1.28-9.36,1.89-16.18,1.92-21.74,.51-33.85,.81-48.81,.21-10.29,1.28-24.9,5.29-42.71,2.32-5.06,7.75-15.04,18.77-23.5,8.23-6.32,17.57-10.17,26.8-11.83-6.03,.26-20.01,1.71-33.33,11.55ZM94.67,305.39c.72-.86,3.96-4.84,5.52-11.23,1.45-5.96,.69-10.94-.61-17.19-2.81-13.52-4.86-17.13-6.93-26.08-2.7-11.63-2.82-20.96-2.86-27.35-.04-5.97-.05-16.21,2.92-29.19,2.25-9.82,5.39-17.7,7.99-23.26-7.09,10.59-9.84,18.97-11.03,23.83-.64,2.6-1.21,5.76-1.27,6.06-1.2,6.61-1.5,11.52-1.86,17.74-.4,6.88-.6,10.32-.34,15.25,.24,4.49,.71,7.72,1.25,11.39,1.36,9.26,3.22,16.63,3.94,19.37,1.71,6.54,2.23,6.98,2.94,11.19,1.02,6.08,.89,10.75,.81,12.48-.17,3.79-.36,7.74-2.08,12.54-1.62,4.52-4,8.11-6.31,10.82,2.01-1.05,5.1-3,7.93-6.37Zm288.2-37.97c.44-2.36,1.3-6.76,2.99-15.54,1.01-5.24,2.07-10.48,3.04-15.73,1.53-8.32,2.86-16.66,3.28-25.13,.25-5.01,.47-10.04,1.31-15.01,.48-2.83,1.4-5.98,3.33-9.5,1.15-2.1,3.41-5.57,10.75-11.21,4.05-3.12,10.03-7.19,18.03-10.93-6.62,1.17-18.01,4.23-28.04,13.48-1.64,1.51-3.68,3.39-5.66,6.2-7.86,11.13-4.16,21.56-5.12,41.26-.7,14.27-2.82,12.25-5.66,37.48-1.28,11.32-1.86,20.68-2.16,26.97,1.54-9.42,2.92-17.04,3.91-22.33ZM5.54,289.41c.25-33.98,2.47-65.71,5.87-94.85-3.77,16.22-5.29,29.36-5.98,38.42-.16,2.05-.07,1.25-.87,15.81-1.53,27.84-1.7,28.04-1.83,34.49-.17,8.31-.04,17.42,.74,29.42,.46,7.07,1.07,14.11,2.87,21-.62-14.24-.91-29.01-.8-44.28Zm1063.01-4.55c.47,6.28,1.24,12.45,1.24,12.45,.54,4.31,.85,5.85,1.28,8.89,1.72,12.09,2.7,18.98,.51,26.57-.67,2.31-1.94,5.77-4.58,9.71,1.21,.14,4.26,.31,6.74-1.62,2.15-1.67,2.81-4.1,3.2-5.94,1.83-8.65,.43-17.61,.3-18.4-2.47-15.12-4.39-19.57-5.66-31.75-.27-2.61-.39-4.37-.61-7.58-.79-11.84-.73-20.98-.2-44.18,.4-17.29,.49-17.79,.41-17.8-.83-.06-3.75,54.65-2.64,69.66Zm-464.46,61.38c.74,5.01,.76,8.03,.81,14.06,.04,5.75-.3,7.53-.91,9.2-2.07,5.69-6.34,7.77-5.56,9.2,.69,1.28,4.89,1.08,7.79-.91,4.31-2.97,4.5-9.03,4.56-11.18,.08-2.53-.37-3.53-1.5-8.94,0,0-1.08-5.16-2.15-12.13-.92-5.98-.95-10.44-.96-16.71-.02-10.42,0-22.42,.15-35.87-3.16,33.2-3.12,47.2-2.22,53.29Zm516.44-193.45c-3.46,.46-6.11,1.51-6.88,1.82-3.88,1.59-5.58,3.35-9.71,6.27,0,0-4.4,3.12-9.71,5.97-3.41,1.83-8.49,4.12-15.37,5.73,4.1,.03,10.62-.4,17.76-3.3,9.33-3.8,12.13-8.74,20.94-11.93,4.04-1.46,10.42-2.95,19.42-1.75-3.16-1.49-9.2-3.76-16.45-2.8Zm-449.8,25.38c-3.61,1.43-9.36,3.7-17.19,6.07-2.91,.88-8.44,2.48-15.57,4.04-5.24,1.15-9.94,1.96-13.94,2.56,5.99,1.74,16.43,3.83,28.89,1.45,10.84-2.08,18.33-6.6,22.04-8.9,8.19-5.06,13.79-10.82,17.22-14.93-8.24,4.21-15.55,7.37-21.44,9.71Zm-473.67-5.43c-2.46,1.05-7.05,3.06-10.81,7.74-2.82,3.52-3.84,6.89-5.49,12.35-.93,3.06-2.01,7.45-2.57,13.05-.47,4.71-.23,9.14,.28,17.79,.46,7.97,.85,14.6,1.07,18.34,.11-5.93,.44-18.59,1.51-31.14,.27-3.2,.62-6.73,2.25-10.99,2.01-5.27,5.26-9.8,6.25-11.18,1.06-1.46,1.94-2.52,4.28-5.75,1.94-2.67,3.11-4.41,3.38-4.78,1.84-2.58,6.97-5.54,21.7-6.81-3.64-.92-12.47-2.61-21.85,1.38Zm1144.54,11.83c4.42-2.78,7.08-4.46,9.67-7.24,5.65-6.08,4.47-10.51,10.13-15.44,2.48-2.16,5.01-3.32,6.67-3.94-3.59-.41-5.95,.37-7.32,1.01-7.31,3.44-5.6,12.15-13.92,17.7-2.93,1.96-4.3,1.64-7.48,4.35-3.25,2.76-5.16,5.92-6.27,8.19,2.2-1.02,5.17-2.52,8.51-4.62Zm-442.53,200.5c5.68-4.12,7.11-10.57,8.04-15.02,.6-2.87,.32-3.34-.27-19.07-.28-7.29-.54-14.25,.06-21.47,.84-10.14,3.05-16.98,4.07-20.88,2.56-9.74,3.96-24.95-1.98-48.35,3.7,19.67,1.61,33.98-1.04,43.48-2.73,9.78-6.41,15.8-6.85,28.32-.27,7.81,1.05,8.77,1.08,22.42,.04,15.65-1.68,20.76-4.12,24.7-2.92,4.73-6.8,7.63-9.51,9.3,2.3-.08,6.58-.58,10.52-3.44ZM338.25,211.23c-3.14,3.11-5.28,5.26-7.49,8.84-2.32,3.75-3.44,6.98-4.49,10.08-1.93,5.7-3.41,12.61-2.64,12.95,.2,.09,.56-.28,3.69-5.87,2.24-4.01,3.36-6.02,4.86-8.94,3.43-6.71,3.47-7.28,4.95-10.04,5.09-9.47,10.76-14.05,10.35-14.55-.39-.48-5.34,3.68-9.22,7.53Zm42.94,189.68c1.29-.38,3.26-1.97,4.17-10.78,1.07-10.39-.59-18.71-1.82-24.47-1.52-7.14-3.5-15.67-6.07-25.28,2.16,10.25,2.2,19.17,3,25.94,1.65,13.91,.44,20.5-1.79,24.83-1,1.95-3.29,5.72-1.82,8.09,.84,1.35,2.82,2.12,4.33,1.68Zm943.99-94.88c.19,1.89,.44,4.38,.93,7.75,1.64,11.13,3.46,14.7,3.03,22.15-.17,2.92-.31,5.03-1.42,7.58-2.47,5.71-7.18,7.68-6.57,8.9,.59,1.19,5.74,.95,9-1.9,3.73-3.27,3.94-9.07,4.05-12.07,.05-1.37,0-2.33-.13-3.6-.66-6.26-4.07-17.04-4.49-18.38-1.53-4.86-2.07-8.95-3.17-17.13-1.84-13.74-1.16-20.83-1.42-20.83-.34,0-1.32,12.57,.18,27.54Zm-822.31-54.31c1.62-1.16,5.11-3.72,6.94-8.4,.14-.35,.57-1.47,.86-3.01,.86-4.59-.23-8.31-1.05-11.11-.38-1.3-.75-2.15-1.41-3.73-2.51-6.06-4.44-8.88-6.41-12.99-1.11-2.32-2.55-5.71-3.78-10.11,.11,1.95,.36,5.04,1.08,8.76,2.22,11.53,6.15,14.96,6.07,23.87-.02,2.27-.09,5.9-1.98,9.99-2.86,6.18-8.02,9.36-10.42,10.63,2.15-.27,6.14-1.07,10.11-3.91Zm-208.31-55.35c-2.48-.82-3.79-2.06-6.51-4.24-.41-.33-3.7-2.71-10.28-7.49-2.32-1.68-5.75-4.09-10.11-6.88,2.52,3.76,5.28,7.76,8.29,11.93,1.94,2.69,3.62,4.94,6.52,7.2,1.96,1.52,3.79,2.51,5.1,3.13,1.35,.32,3.2,.58,5.37,.39,4.5-.4,7.67-2.53,9.1-3.64-1.85,.34-4.57,.56-7.48-.4Zm731.06-29.46c2.73-2.84,4.19-5.88,4.99-8.09-2.39,2.54-5.63,5.53-9.84,8.36-5.25,3.53-10.23,5.61-14.04,6.87,2.02,.07,11.82,.2,18.9-7.14ZM179.95,304.99c-.08,8.38,.44,16.71,1.47,25.03,.59,4.74,1.26,9.45,2.42,14.09,.22-.33,.42-.68,.68-.97,2.18-2.42,2.86-5.21,2.26-8.4-.31-1.65-.71-3.28-1.24-4.86-.8-2.38-1.57-4.77-2.55-7.08-.69-1.64-.59-3.38-.94-5.05-1.06-5.09-1.42-10.25-1.55-15.44-.92,.74-.54,1.77-.55,2.69Zm740.15-114.47c2.43-4.8,5.07-9.89,10.31-15.17,6.16-6.19,12.73-9.44,16.99-11.12-3.64,.32-10.3,1.42-16.99,5.87-7.59,5.04-11.03,11.62-13.35,16.18-6.44,12.67-6.18,25-5.52,31.5,1.78-12.22,5.58-21.4,8.55-27.26Zm491.03,3.55c-1.62,4.87-2.43,8.94-2.88,11.81-.94,6.07-.68,9.69-3.37,13.08-1.7,2.14-3.85,3.28-5.39,3.91,1.24,.62,4.77,2.18,7.55,.67,3.37-1.83,3.69-7.09,3.91-10.79,.14-2.33-.1-3.29-.27-6.07-.18-2.98-.23-7.28,.45-12.62ZM47.6,165c-8.65-2.27-15.71,.73-17.99,1.74-3.97,1.76-6.44,3.99-6.95,4.45-5.1,4.68-6.81,10.35-7.41,12.94,1.52-2.4,7.09-10.59,17.92-13.86,15.65-4.73,28.51,4.97,29.81,5.97-1.13-1.75-5.96-8.77-15.38-11.25Zm272.97,140.9c1.05,.21,1.67-.2,2.17-.67,1.95-1.84,3.24-3.99,3.46-6.78,.31-3.94-.26-7.79-.95-11.62-.21-1.19-.14-2.5-1.1-3.67-1.64,7.61-3.38,15.05-3.59,22.75Zm866.84-85.45c-.21,3.91-.23,8.41-.27,17.39-.08,16.34,.37,19.15,1.08,21.64,.19,.66,.86,2.95,1.21,6.11,.35,3.14,.54,5.59-.33,8.37-.42,1.32-1.55,4-5.06,6.48,1.37,.05,4.51-.03,6.88-2.16,3.02-2.72,2.9-7.05,2.76-10.25-.23-5.45-2.01-7.79-3.51-12.67-1-3.27-1.16-8.05-1.48-17.6-.29-8.6-.12-15.26,.07-22.18,.17-6.34,.41-11.59,.61-15.24-.74,5.16-1.53,12-1.96,20.09Zm-188.78-28.8c-1.01,6.82-1.05,17.21-1.06,21.25,0,2.78,.03,5.17-1.48,7.55-1.56,2.46-3.75,3.29-3.51,4.85,.2,1.25,1.84,2.23,3.24,2.29,2.63,.11,4.36-3.05,4.79-3.82,1.34-2.44,1.27-4.79,1.14-7.5-.31-6.4-.46-9.6-.81-11.46-.87-4.64-1.32-12.07,.67-24.13-1.83,4.63-2.61,8.47-2.98,10.98Zm229.2,31.83h0s.32,5.67-1.76,8.89c-.74,1.14-1.69,2.01-1.69,2.01-.56,.52-1.1,.89-1.5,1.14,.81,.26,2.18,.55,3.54,0,2.53-1.03,3.2-4.25,3.54-5.87,.56-2.7,.2-4.71-.71-9.2-.85-4.21-1.58-7.7-2.12-10.21,.48,5.4,.71,9.78,.71,13.25ZM124.8,167.59c4.67,1.29,5.51,2.22,9.57,3.05,6.71,1.38,9.72-.08,15.51,.18,3.96,.18,9.68,1.18,16.58,5.12-5.36-5.64-10.26-7.53-13.75-8.22-4.32-.85-5.47,.34-12.54-.27-6.73-.58-8.17-1.88-13.95-2.56-3.61-.42-8.95-.61-15.72,.81,3.29-.02,8.36,.25,14.29,1.89Zm1339.55,61.04c2.73,.72,5.82,.16,7.94-1.58,2.48-2.05,1.92-4.33,4.4-8.43,1.62-2.68,3.54-4.49,4.85-5.56-1.48,.7-3.58,1.9-5.56,3.94-3.3,3.41-3.26,6.09-5.56,7.79-1.79,1.31-5.08,2.11-11.73-.51,.36,.61,2.1,3.41,5.66,4.35Zm-902.83-42.17c2.77-.72,4.33-2.9,5.3-4.25,1.87-2.6,1.26-3.65,3.3-6.97,.96-1.56,2.02-3.28,3.74-4.46,3.86-2.63,8.98-1.12,10.52-.61-.39-.52-2.75-3.5-6.98-3.94-3.1-.33-6.1,.83-7.99,2.73-1.26,1.27-1.85,2.7-3.03,5.56-1.17,2.85-.95,3.45-2.02,5.06-1.45,2.17-3.33,3.27-4.15,3.74-2.28,1.31-4.44,1.63-5.66,1.72,.7,.47,3.63,2.29,6.98,1.42Zm720.13,75.71c.34-4.62-1.99-8.05-2.83-9.17,.36,3.16,.06,5.75-.27,7.48-.4,2.11-1.24,6.23-4.52,10.04-1.55,1.8-3.16,2.98-4.31,3.71,.59,.48,1.46,1.02,2.53,1.07,2.79,.11,4.9-3.25,6.44-5.72,1.48-2.36,2.74-4.38,2.97-7.42Zm117.22,105.96c1.28-.96,1.78-2.23,2.12-3.13,.62-1.62,.59-3.01,.3-7.14-.32-4.65-.65-4.66-.61-6.92,.05-2.73,.56-4.73,1.06-6.72,.59-2.34,1.63-5.55,3.54-9.15-2.52,3.42-3.86,6.61-4.6,8.8-.53,1.58-1.52,4.55-1.67,8.49-.14,3.63,.56,4.57,.05,8.39-.47,3.51-1.35,4.93-2.02,5.76-1.16,1.44-2.57,2.19-3.49,2.58,.57,.13,3.19,.63,5.31-.96ZM11.2,382.54c-.23,4.14-.55,9.81-3.84,15.57-1.5,2.63-2.87,3.96-3.64,7.18-.8,3.31-.81,7.97,.71,8.49,2.05,.71,7.07-6.05,9.2-13.15,1.51-5.03,1.26-9.2,1.01-12.84-.3-4.32-1.31-11.16-4.96-19.11,1.6,5.76,1.7,10.64,1.52,13.85Zm86.69-14.71c.59,1.15,1.39,2.97,1.9,5.31,.6,2.79,1.42,6.58-.4,9.1-2.24,3.08-7.09,2.42-7.08,3.44,.01,.85,3.41,1.55,6.07,1.62,2.3,.06,4.08,.11,5.3-1.03,1.9-1.77,1.18-5.25,.77-7.27-1.07-5.19-4.16-8.92-6.55-11.18Zm163.09-115.03c-.52,1.59-1.37,4.25-3.87,6.33-.08,.07-.14,.12-.19,.15-4,3.19-7.37,1.96-9.28,4.29-.76,.93-1.24,2.37-.83,3.53,.71,1.96,3.82,2.53,5.65,2.5,4.23-.08,7.33-3.52,8.61-5.19,.04-.06,.25-.33,.49-.67,4.22-6.1,3.52-15.85,3.45-16.72-.22-2.69-.88-6.84-3.03-11.6,.7,8.18-.06,14.46-1.01,17.39Zm172.11,36c1.06-.17,3.52-.58,5.87-2.43,1.12-.88,2.41-1.89,2.83-3.64,.37-1.52-.12-2.8-.61-4.04-1.09-2.77-2.96-4.7-4.52-5.93,.22,.45,2.46,5.3-.27,10.25-2.68,4.85-7.83,5.6-8.36,5.66,1.39,.29,3.12,.44,5.06,.13Zm21.91,91.28c.06,.34,.8,4.44,4.31,5.93,3.81,1.62,7.53-1.25,7.82-1.48,2.53-2.01,1.54-3.79,4.18-5.53,1.67-1.1,4.04-1.69,5.93-2.16,1.69-.42,2.18-.39,2.97-.94,.53-.37,1.25-1.05,2.56-4.31,.43-1.08,.97-2.54,1.48-4.31-1.69,4.24-3.75,5.75-5.33,6.34-.32,.12-1.51,.35-3.91,.81-3.86,.74-4.29,.71-5.33,1.21-1.05,.51-1.91,1.28-3.64,2.83-2.56,2.29-2.61,2.84-3.57,3.3-1.31,.63-3.52,.76-7.48-1.69Zm93.3-98.02c.81,1.2,5.38,.17,8.76-2.16,3.3-2.27,2.61-3.8,5.93-6.07,3.62-2.47,6.11-1.8,7.42-4.04,1.06-1.82,.5-4.14-.13-5.8-.29,1.57-.91,3.06-2.16,4.04-1.67,1.33-3.09,.65-5.93,1.89-1.78,.77-1.42,1.12-4.31,2.97-3.52,2.24-4.3,1.88-6.2,3.51-1.98,1.69-4.08,4.61-3.37,5.66Zm143.26-9.44c1.21-.77,.81-3.39,.4-5.87-1.3-7.95-5.05-11.48-7.28-16.99-1.35-3.34-2.6-8.51-1.42-15.98-3.45,9.73-2.72,16.58-1.42,21.03,1.55,5.28,4.69,9.86,3.44,10.92-1.37,1.15-6.35-3.24-6.67-2.83-.49,.62,9.94,11.62,12.94,9.71Zm118.72,25.59c2.27,.06,2.97-2.25,6.74-5.53,1.61-1.4,5.97-5.12,11.75-6.09,1.82-.31,5.05-.56,9.22,.8-.77-.92-2.14-2.32-4.25-3.24-3.78-1.65-7.41-.68-9.44-.1-4.2,1.19-4.06,2.64-9.24,5.06-5.87,2.74-9.06,2.27-9.51,4.18-.45,1.92,2.2,4.86,4.72,4.92Zm146.16-22.62c2.98-.4,4.54-2.82,4.72-3.1,1.66-2.66,.81-5.7,.4-7.15-.83-2.94-1.96-2.74-2.64-5.55-.43-1.78-.26-3.52,.08-6.99,.2-2.02,.46-3.69,.67-4.87-1.66,1.75-2.59,3.47-3.09,4.6-.73,1.64-2.22,4.95-1.21,8.36,.6,2.04,1.47,2.02,2.02,4.31,.26,1.08,.87,3.63-.4,5.39-1.33,1.84-4.41,2.42-7.55,1.35,1.55,2.57,4.31,4.01,7.01,3.64Zm167.78-68c.51-.2,1.5-.59,2.46-1.5,0,0,.68-.64,1.23-1.56,1.54-2.57,2.28-8.31,2.32-8.66-.88,2.33-1.81,4.2-2.55,5.55-1.26,2.29-1.92,3.46-3.19,4.49-1.9,1.55-4.07,1.98-5.38,2.11,.98,.17,2.98,.38,5.11-.44Zm31.21,159.68c.95,1.69,3.49,2.44,5.06,2.07,4.13-.98,6.61-3.97,7.65-5.25,7.4-9.14,3.27-23.1,1.97-27.51-1.23-4.17-3.86-10.85-9.84-17.85,2.27,3.99,4.88,9.97,5.47,17.5,.54,6.86,1.14,14.63-3.64,19.18-1.38,1.31-3.7,2.82-5.54,6.16-.93,1.69-2.13,3.93-1.12,5.7Zm72.77-200.69c2.59,.07,4.59-.46,6.13-1.15,2.21-.99,3-2.21,6.2-4.45,1.82-1.27,4.13-2.79,5.39-3.51,2.39-1.36,6.8-3.13,14.15-2.61-2.03-.97-7.63-3.33-13.88-1.6-.9,.25-3.07,.86-5.39,2.47-2.99,2.05-3.56,3.89-6.47,6.61-1.29,1.2-3.27,2.8-6.13,4.25Zm215.6,113.12c1.1-.2,1.83-.73,2.49-1.21,.87-.64,1.97-1.45,2.43-2.76,.21-.59,.3-1.33-.61-4.52-.32-1.13-.8-2.69-1.48-4.52-.13,.85-.25,2.15-.07,3.71,.28,2.36,.97,2.94,.67,4.38-.41,2-2.19,3.17-2.7,3.51-1.44,.95-2.86,1.11-3.54,1.14,.5,.19,1.54,.51,2.8,.28Z" fill="#ff3131"/></g></svg>