<?xml version="1.0" encoding="UTF-8" standalone="no"?><svg xmlns="http://www.w3.org/2000/svg" xmlns:xlink="http://www.w3.org/1999/xlink" fill="#000000" height="886.2" id="Text" preserveAspectRatio="xMidYMid meet" version="1.1" viewBox="59.8 56.4 880.7 886.2" width="880.7" x="0" xml:space="preserve" y="0" zoomAndPan="magnify"><g id="change1_1"><path d="M934.75,335.97c-5.01-29.1-13.13-57.29-25.25-84.33c-18.02-40.26-42.67-75.72-75.07-105.8 c-26.74-24.84-56.88-44.33-90.25-58.98c-39.29-17.25-80.5-26.55-123.22-28.69c-35.52-1.8-70.83,0.87-105.79,8.05 c-52.28,10.72-101.05,30.31-147.12,57c-9.62,5.56-18.62,12.09-29.35,15.88c-30.07,10.63-58.45,24.84-85.32,42.05 c-28.57,18.29-54.65,39.58-78.19,64.04c-14.87,15.45-28.5,31.88-40.86,49.37c-20.67,29.27-37.13,60.79-49.58,94.42 c-14.31,38.64-22.31,78.55-24.24,119.62c-0.72,15.01-0.51,30.05,0.48,45.11c1.09,16.57,2.96,32.99,6.15,49.22 c10.33,52.62,30.21,101.43,59.7,146.23c21.71,32.94,47.58,62.21,77.54,87.92c27.22,23.34,56.89,42.88,88.93,58.89 c25.44,12.7,51.87,22.87,79.31,30.38c34.62,9.47,69.82,14.91,105.75,15.86c12.39,0.34,24.75,0,37.11-0.29 c8.96-0.21,17.95-0.89,26.84-1.98c22.58-2.79,44.93-6.87,66.91-12.82c29.56-8.02,58.07-18.82,85.32-32.72 c29.64-15.13,57.24-33.39,82.76-54.82c21.95-18.43,41.8-38.82,59.58-61.2c22.28-28.07,40.4-58.69,54.77-91.53 c11.27-25.78,19.68-52.53,25.44-80.01c5.9-28.09,8.62-56.59,7.73-85.36c-0.14-4.24,0.55-8.31,1.56-12.39 c8.7-35.13,14.09-70.69,13.35-108.95C940.53,379.86,938.5,357.8,934.75,335.97z M909.62,581.09c-3.4,24.09-8.65,47.78-16.6,70.83 c-11.69,33.87-27.35,65.77-47.63,95.39c-13.61,19.88-28.74,38.41-45.51,55.73c-26.04,26.89-55.27,49.65-87.48,68.62 c-39.32,23.15-81.32,39.52-125.84,49.35c-17.23,3.8-34.64,6.38-52.21,8.14c-13.61,1.35-27.2,1.59-40.82,1.83 c-55.22,0.92-108.3-9.71-159.65-29.37c-41.29-15.8-79.12-37.87-113.41-65.71c-36.36-29.56-66.96-64.3-91.39-104.45 C107.71,696.31,92.11,658.89,82.4,619c-5.32-21.81-8.63-43.95-10.15-66.4c-1.04-15.06-1.23-30.12-0.48-45.1 c1.56-30.99,6.87-61.44,15.78-91.22c7.42-24.72,17.1-48.53,29.18-71.32c13.97-26.38,30.58-50.94,50.04-73.65 c26.53-30.98,56.88-57.47,91.1-79.54c14.31-9.23,28.94-17.98,44.58-24.86c0.31,0.27,0.6,0.56,0.89,0.84 c-10.24,8.94-20.79,17.57-30.7,26.89c-32.21,30.29-60.53,63.9-84.43,101.12c-22.04,34.31-40.02,70.6-53.44,109.17 c-9.59,27.57-16.63,55.75-21.06,84.55c-2.24,14.51-3.38,29.16-4.26,43.87c-0.8,13.66-0.46,27.25,0.24,40.86 c1.47,29.01,6.27,57.47,14.43,85.36c10.03,34.33,25.03,66.38,45.35,95.84c28.79,41.68,65.48,74.55,109.96,98.83 c29.92,16.31,61.63,27.59,94.9,34.38c21.08,4.29,42.45,6.43,64.04,7.06c64.89,1.91,126.64-11.45,186.12-36.77 c43.94-18.7,84.37-43.27,121.46-73.22c30.5-24.63,57.94-52.31,82.55-82.88c23.33-28.98,43.25-60.09,60.16-93.17 c8.03-15.73,15.1-31.93,21.3-48.48c0.36-0.97,0.75-1.93,1.64-4.21C912.17,566.02,910.68,573.58,909.62,581.09z M925.8,448.97 c-0.96,7.52-2,15.03-2.99,22.53c-0.55-0.31-1.11-0.6-1.66-0.89c-2.48-18.58-6.55-36.84-11.76-54.83 c-7.33-25.37-16.82-49.94-29.25-73.25c-15.69-29.49-34.16-57.1-56.21-82.33c-23.8-27.2-50.57-51.01-80.33-71.39 c-30.7-21.01-63.61-37.82-98.66-50.48c-27.16-9.81-55.01-16.89-83.49-21.35c-13.59-2.12-27.3-3.35-41.05-4.27 c-13.51-0.92-26.98-0.85-40.45-0.67c-27.15,0.39-53.95,3.97-80.52,9.32c-0.97-0.14-2.09,0.21-2.75-0.89 c43.15-22.19,88.45-37.75,136.35-45.94c28.7-4.91,57.58-6.65,86.54-5.11c42.69,2.26,83.84,11.62,123.04,29.18 c39.35,17.63,73.58,42.29,102.5,74.13c33.06,36.41,55.83,78.67,69.42,125.89c7.15,24.75,11.61,49.95,13.2,75.7 C929.27,399.28,928.94,424.15,925.8,448.97z" fill="#c1ff72"/></g></svg>