<?xml version="1.0" encoding="UTF-8" standalone="no"?><svg xmlns="http://www.w3.org/2000/svg" xmlns:xlink="http://www.w3.org/1999/xlink" fill="#000000" height="783.8" preserveAspectRatio="xMidYMid meet" version="1" viewBox="65.9 38.0 731.4 783.8" width="731.4" zoomAndPan="magnify"><g><g fill="#f90006" id="change1_1"><path d="M339.5,335.5c0,0-69.1-189.5-15.1-138.1S422.6,301,464.7,262s116.6,3.4,111.5,73.5 c-5.1,70,205.5,0.7,159.3,44.3s-164.4,48.8-74.5,92.5s97.6,69.4,0,61.7c-97.6-7.7,121.2,123.3,81.2,125.9 c-40,2.6-237.8-146.5-200.6-23.1s29.5,161.3-27,79.4s-138.7,10.6-210.7-71.6s-182.4,5.1-123.3-51.4 c59.1-56.5,89.9-66.8,38.5-102.8s-14.7-33.4,32.5-69.4S138.9,283.5,339.5,335.5z"/><path d="M280.8,83.5c16.8,37.6,19.1,73.1,5.3,79.2c-13.8,6.2-38.6-19.3-55.4-56.9s-12.8-55.5,1.1-61.7 C245.6,38,264.1,45.9,280.8,83.5z"/><ellipse cx="139.5" cy="374.7" rx="29.1" ry="68.7" transform="rotate(-76.521 139.54 374.694)"/><ellipse cx="163.7" cy="704.6" rx="68.7" ry="29.1" transform="rotate(-49.812 163.663 704.537)"/><ellipse cx="295.1" cy="723.7" rx="37" ry="23.2" transform="rotate(-63.13 295.11 723.707)"/><ellipse cx="516.8" cy="171.7" rx="54" ry="24.6" transform="rotate(-63.13 516.815 171.737)"/><ellipse cx="688" cy="223.4" rx="57.7" ry="36.9" transform="rotate(-63.13 688.012 223.37)"/><ellipse cx="747" cy="577.2" rx="22.6" ry="46.3" transform="rotate(-76.521 746.994 577.149)"/><circle cx="624.1" cy="797.8" r="24"/></g></g></svg>