<?xml version="1.0" encoding="UTF-8"?><svg xmlns="http://www.w3.org/2000/svg" xmlns:xlink="http://www.w3.org/1999/xlink" height="493.8" preserveAspectRatio="xMidYMid meet" version="1.0" viewBox="0.0 0.0 359.1 493.8" width="359.1" zoomAndPan="magnify"><defs><clipPath id="a"><path d="M 0 0 L 359.050781 0 L 359.050781 493.789062 L 0 493.789062 Z M 0 0"/></clipPath><clipPath id="b"><path d="M 0 0 L 359.050781 0 L 359.050781 493.789062 L 0 493.789062 Z M 0 0"/></clipPath></defs><g><g clip-path="url(#a)" id="change1_1"><path d="M 359.035156 451.410156 L 353.523438 341.960938 L 353.484375 341.089844 L 353.476562 340.941406 C 353.476562 340.859375 353.476562 340.769531 353.453125 340.691406 C 353.433594 340.527344 353.394531 340.367188 353.335938 340.21875 C 353.316406 340.148438 353.285156 340.070312 353.246094 340 C 353.214844 339.929688 353.183594 339.859375 353.136719 339.789062 C 353.066406 339.660156 352.976562 339.527344 352.863281 339.417969 C 352.816406 339.359375 352.765625 339.300781 352.703125 339.25 C 352.613281 339.160156 352.515625 339.078125 352.414062 339.011719 L 352.40625 339.011719 C 352.335938 338.960938 352.273438 338.910156 352.203125 338.878906 C 352.164062 338.851562 352.113281 338.828125 352.074219 338.808594 C 351.664062 338.578125 351.246094 338.351562 350.824219 338.117188 L 350.523438 336.308594 C 349.34375 329.179688 348.164062 322.050781 346.976562 314.917969 C 346.964844 314.859375 346.953125 314.808594 346.933594 314.761719 C 346.914062 314.640625 346.886719 314.539062 346.835938 314.429688 C 346.804688 314.351562 346.773438 314.277344 346.734375 314.199219 C 346.636719 314 346.503906 313.808594 346.34375 313.640625 C 346.296875 313.589844 346.246094 313.539062 346.195312 313.488281 C 346.066406 313.367188 345.925781 313.261719 345.765625 313.167969 C 343.625 311.71875 341.464844 310.261719 339.324219 308.800781 C 340.285156 305.640625 341.246094 302.488281 342.214844 299.328125 C 342.234375 299.261719 342.253906 299.191406 342.273438 299.117188 C 342.273438 299.109375 342.285156 299.101562 342.285156 299.089844 C 342.316406 298.980469 342.34375 298.867188 342.355469 298.761719 C 342.375 298.640625 342.386719 298.511719 342.386719 298.390625 C 342.386719 298.269531 342.375 298.160156 342.355469 298.039062 C 342.34375 297.910156 342.316406 297.777344 342.273438 297.660156 C 342.265625 297.609375 342.246094 297.570312 342.234375 297.527344 C 342.203125 297.429688 342.164062 297.339844 342.105469 297.25 C 342.066406 297.160156 342.015625 297.070312 341.953125 296.988281 C 341.925781 296.949219 341.894531 296.898438 341.863281 296.859375 C 341.804688 296.769531 341.734375 296.699219 341.65625 296.617188 C 341.644531 296.609375 341.636719 296.601562 341.625 296.589844 C 338.414062 293.480469 334.914062 290.667969 331.175781 288.21875 C 330.566406 287.820312 329.953125 287.429688 329.335938 287.050781 C 329.914062 286.300781 330.503906 285.550781 331.09375 284.800781 C 332.074219 283.539062 333.066406 282.269531 334.054688 281.011719 C 336.175781 278.277344 338.304688 275.550781 340.425781 272.820312 C 340.453125 272.777344 340.484375 272.75 340.515625 272.710938 C 340.574219 272.628906 340.636719 272.550781 340.683594 272.46875 C 340.695312 272.460938 340.703125 272.441406 340.703125 272.429688 C 340.734375 272.378906 340.765625 272.339844 340.785156 272.289062 C 340.796875 272.277344 340.796875 272.277344 340.796875 272.269531 C 340.835938 272.179688 340.875 272.078125 340.914062 271.980469 C 340.945312 271.890625 340.964844 271.800781 340.984375 271.710938 C 341.003906 271.691406 341.003906 271.667969 341.003906 271.640625 C 341.023438 271.570312 341.035156 271.5 341.035156 271.417969 C 341.054688 271.238281 341.054688 271.050781 341.023438 270.859375 C 341.015625 270.777344 341.003906 270.710938 340.996094 270.628906 L 339.316406 257.441406 L 338.945312 254.539062 L 319.695312 103.710938 C 319.683594 103.671875 319.675781 103.628906 319.664062 103.589844 C 319.65625 103.519531 319.636719 103.449219 319.613281 103.378906 C 319.59375 103.289062 319.566406 103.210938 319.535156 103.117188 C 319.515625 103.058594 319.476562 102.988281 319.445312 102.929688 C 319.40625 102.839844 319.363281 102.757812 319.316406 102.691406 C 319.273438 102.628906 319.234375 102.570312 319.195312 102.519531 C 319.136719 102.441406 319.074219 102.367188 319.003906 102.300781 C 318.984375 102.269531 318.964844 102.25 318.945312 102.230469 C 318.765625 102.058594 318.59375 101.878906 318.425781 101.699219 L 318.136719 101.421875 C 311.933594 95.070312 305.785156 88.511719 299.875 81.941406 C 299.855469 81.917969 299.84375 81.917969 299.835938 81.898438 C 299.765625 81.828125 299.695312 81.769531 299.625 81.710938 C 299.566406 81.667969 299.515625 81.617188 299.464844 81.578125 C 299.394531 81.527344 299.316406 81.488281 299.246094 81.449219 C 299.175781 81.410156 299.113281 81.359375 299.046875 81.328125 C 298.976562 81.300781 298.894531 81.277344 298.824219 81.25 C 298.746094 81.230469 298.664062 81.199219 298.574219 81.179688 C 298.515625 81.160156 298.445312 81.160156 298.375 81.148438 C 298.273438 81.128906 298.183594 81.117188 298.085938 81.109375 C 298.074219 81.109375 298.054688 81.109375 298.035156 81.109375 C 292.914062 81.050781 287.773438 80.789062 282.734375 80.359375 C 272.503906 53.480469 251.203125 30.910156 225.453125 19.800781 C 219.796875 17.359375 213.84375 15.441406 207.796875 14.070312 C 181.324219 -0.0390625 150.285156 -3.75 122.59375 3.917969 C 82.824219 14.929688 50.292969 49.398438 41.265625 89.910156 L 2.957031 108.671875 C 2.804688 108.648438 2.65625 108.628906 2.496094 108.628906 C 2.386719 108.628906 2.273438 108.640625 2.164062 108.648438 C 2.15625 108.648438 2.144531 108.648438 2.136719 108.660156 C 2.015625 108.671875 1.886719 108.699219 1.773438 108.738281 C 1.675781 108.757812 1.585938 108.800781 1.503906 108.839844 C 1.476562 108.851562 1.445312 108.859375 1.425781 108.878906 C 1.316406 108.921875 1.207031 108.980469 1.113281 109.050781 C 0.90625 109.191406 0.722656 109.351562 0.574219 109.539062 C 0.496094 109.628906 0.425781 109.738281 0.355469 109.839844 C 0.355469 109.851562 0.355469 109.851562 0.355469 109.851562 C 0.285156 109.960938 0.234375 110.078125 0.183594 110.199219 C 0.144531 110.277344 0.113281 110.367188 0.09375 110.449219 C 0.0546875 110.589844 0.0234375 110.738281 0.015625 110.890625 C -0.00390625 111.027344 -0.00390625 111.160156 0.015625 111.300781 C 0.015625 111.351562 0.015625 111.410156 0.0234375 111.46875 C 15.394531 223.140625 25.273438 336.910156 29.40625 449.601562 C 29.40625 449.628906 29.40625 449.660156 29.40625 449.691406 C 29.40625 449.761719 29.414062 449.828125 29.425781 449.898438 C 29.433594 449.96875 29.445312 450.027344 29.457031 450.101562 C 29.484375 450.230469 29.515625 450.359375 29.574219 450.488281 C 29.605469 450.589844 29.644531 450.679688 29.695312 450.769531 C 29.746094 450.859375 29.792969 450.941406 29.855469 451.027344 C 29.957031 451.167969 30.074219 451.308594 30.207031 451.429688 C 30.246094 451.46875 30.292969 451.511719 30.34375 451.550781 C 30.40625 451.601562 30.464844 451.648438 30.535156 451.691406 C 30.542969 451.699219 30.566406 451.707031 30.574219 451.71875 C 51.675781 465.570312 72.785156 479.429688 93.886719 493.289062 C 93.925781 493.320312 93.972656 493.351562 94.015625 493.378906 C 94.035156 493.390625 94.042969 493.398438 94.066406 493.410156 C 94.15625 493.46875 94.246094 493.519531 94.34375 493.558594 C 94.433594 493.609375 94.535156 493.640625 94.636719 493.667969 C 94.664062 493.691406 94.707031 493.699219 94.746094 493.699219 C 94.824219 493.730469 94.90625 493.75 94.996094 493.761719 C 95.125 493.777344 95.253906 493.789062 95.386719 493.789062 C 95.484375 493.789062 95.585938 493.777344 95.683594 493.769531 L 96.542969 493.691406 C 96.554688 493.691406 96.566406 493.691406 96.574219 493.691406 C 183.773438 486.167969 271.34375 472.859375 356.886719 454.148438 C 356.894531 454.148438 356.914062 454.148438 356.925781 454.148438 C 357.125 454.109375 357.316406 454.058594 357.503906 453.980469 C 357.636719 453.929688 357.765625 453.859375 357.886719 453.777344 C 357.984375 453.71875 358.085938 453.648438 358.175781 453.570312 C 358.363281 453.410156 358.535156 453.21875 358.664062 453 C 358.703125 452.949219 358.734375 452.890625 358.765625 452.828125 C 358.804688 452.75 358.84375 452.667969 358.875 452.578125 C 358.90625 452.527344 358.925781 452.480469 358.933594 452.417969 C 358.964844 452.339844 358.984375 452.25 358.996094 452.160156 C 359.015625 452.101562 359.023438 452.039062 359.023438 451.96875 C 359.035156 451.941406 359.046875 451.898438 359.035156 451.851562 C 359.054688 451.75 359.054688 451.648438 359.046875 451.550781 C 359.046875 451.5 359.046875 451.449219 359.035156 451.410156" fill="#d6d9db"/></g><g id="change2_1"><path d="M 257.855469 205.960938 C 258.414062 209.621094 258.855469 213.371094 259.433594 217.078125 C 257.445312 217.308594 255.453125 217.589844 253.476562 217.890625 C 253.164062 215.699219 252.804688 213.5 252.476562 211.320312 C 251.246094 203.191406 250.015625 195.050781 248.753906 186.921875 C 246.714844 173.691406 244.386719 160.527344 241.90625 147.371094 L 241.90625 147.359375 C 244.574219 146.851562 247.265625 146.308594 249.945312 145.839844 C 251.164062 158.039062 252.703125 170.210938 254.425781 182.371094 C 254.574219 183.429688 254.726562 184.488281 254.875 185.550781 C 254.953125 186.101562 255.035156 186.648438 255.113281 187.199219 C 256.003906 193.460938 256.90625 199.710938 257.855469 205.960938" fill="#f5fcfd"/></g><g id="change2_2"><path d="M 115.515625 153.679688 C 116.664062 159.390625 117.476562 165.199219 118.414062 170.890625 C 119.914062 179.941406 121.394531 188.988281 122.886719 198.039062 C 123.183594 199.859375 123.484375 201.671875 123.773438 203.488281 C 132.363281 200.21875 141.335938 197.910156 147.886719 190.910156 C 154.753906 183.558594 156.445312 173.570312 150.914062 164.941406 C 142.796875 152.257812 129.085938 151.238281 115.515625 153.679688 Z M 201.386719 191.277344 C 199.285156 177.289062 197.40625 163.269531 195.566406 149.230469 C 194.023438 149.269531 192.503906 149.320312 191.035156 149.429688 C 189.726562 149.519531 188.375 149.671875 186.984375 149.851562 C 189.324219 164.378906 191.664062 178.910156 193.753906 193.480469 C 194.835938 201.027344 195.824219 208.589844 196.855469 216.140625 C 197.226562 218.890625 197.835938 221.851562 198.324219 224.851562 C 200.894531 224.441406 203.496094 224.128906 206.085938 223.910156 C 205.664062 220.71875 205.363281 217.539062 204.925781 214.621094 C 203.746094 206.839844 202.546875 199.058594 201.386719 191.277344 Z M 252.09375 145.46875 C 254.304688 157.199219 256.234375 168.980469 257.976562 180.800781 C 258.15625 181.988281 258.324219 183.179688 258.496094 184.371094 C 267.335938 182.910156 277.023438 181.007812 283.183594 174.121094 C 289.804688 166.730469 289.945312 156.527344 281.726562 150.339844 C 272.765625 143.578125 262.515625 143.808594 252.09375 145.46875 Z M 154.453125 229.179688 C 151.65625 225.570312 148.894531 221.921875 146.136719 218.277344 C 142.535156 213.527344 138.605469 208.820312 135.363281 203.769531 C 131.765625 205.257812 128.035156 206.398438 124.386719 207.238281 C 125.34375 213.238281 126.273438 219.238281 127.164062 225.25 C 127.765625 229.378906 128.605469 233.648438 129.285156 237.941406 C 132.046875 237.519531 134.804688 237.121094 137.574219 236.757812 C 139.015625 236.570312 139.703125 238.429688 138.195312 238.878906 C 135.40625 239.699219 132.585938 240.378906 129.726562 240.941406 C 128.195312 241.238281 126.65625 241.507812 125.105469 241.738281 C 122.875 242.089844 120.625 242.359375 118.375 242.578125 C 118.296875 242.589844 118.226562 242.601562 118.144531 242.601562 C 116.734375 242.738281 115.316406 242.871094 113.90625 242.960938 C 110.703125 243.179688 107.503906 243.320312 104.316406 243.390625 C 102.835938 243.421875 102.613281 241.648438 104.125 241.488281 C 107.214844 241.179688 110.296875 240.789062 113.363281 240.351562 C 112.535156 236.027344 111.953125 231.628906 111.136719 227.570312 C 109.453125 219.210938 107.945312 210.800781 106.625 202.378906 C 104.285156 187.449219 102.113281 172.480469 100.515625 157.460938 C 97.613281 158.351562 94.835938 159.257812 92.246094 160.078125 C 91.433594 160.339844 90.496094 159.289062 91.457031 158.828125 C 94.195312 157.507812 97.15625 156.191406 100.265625 154.980469 C 100.984375 154.691406 101.703125 154.421875 102.445312 154.140625 C 105.496094 153.019531 108.675781 152 111.894531 151.179688 C 112.863281 150.929688 113.84375 150.691406 114.824219 150.480469 C 130.125 147.160156 146.035156 148.550781 155.296875 162.980469 C 161.273438 172.308594 159.84375 183.460938 152.824219 191.777344 C 148.914062 196.421875 143.664062 199.980469 137.964844 202.628906 C 142.34375 207.171875 146.214844 212.308594 150.226562 217.148438 C 152.515625 219.921875 154.804688 222.679688 157.074219 225.460938 C 159.695312 228.691406 163.363281 231.578125 163.894531 235.828125 C 164.003906 236.710938 162.785156 237.210938 162.085938 236.910156 C 158.554688 235.351562 156.773438 232.191406 154.453125 229.179688 Z M 211.804688 226.929688 C 210.136719 227.300781 208.433594 227.648438 206.714844 227.949219 C 204.144531 228.410156 201.523438 228.789062 198.90625 229.070312 C 197.105469 229.257812 195.304688 229.410156 193.523438 229.5 C 190.296875 229.671875 187.105469 229.671875 184.046875 229.449219 C 183.296875 229.398438 183.363281 228.519531 183.976562 228.308594 C 186.875 227.308594 189.933594 226.488281 193.085938 225.820312 C 192.765625 222.429688 192.625 219.039062 192.253906 216.007812 C 191.386719 208.738281 190.464844 201.480469 189.664062 194.199219 C 188.023438 179.507812 186.613281 164.789062 185.214844 150.078125 C 179.316406 150.859375 172.996094 151.851562 167.566406 150.828125 C 167.09375 150.75 166.894531 150.179688 167.363281 149.929688 C 173.554688 146.640625 182.175781 146.558594 189.035156 145.839844 C 190.933594 145.640625 192.953125 145.359375 195.035156 145.101562 C 195.863281 145 196.695312 144.898438 197.535156 144.808594 C 202.433594 144.277344 207.484375 144.078125 211.785156 145.441406 C 212.863281 145.789062 212.636719 147.078125 211.683594 147.410156 C 207.546875 148.828125 202.914062 149.058594 198.34375 149.171875 C 200.894531 162.921875 203.386719 176.679688 205.664062 190.488281 C 207.003906 198.550781 208.304688 206.621094 209.625 214.691406 C 210.085938 217.519531 210.746094 220.539062 211.285156 223.601562 C 213.054688 223.519531 214.796875 223.5 216.496094 223.507812 C 217.863281 223.519531 218.074219 225.371094 216.765625 225.71875 C 215.15625 226.148438 213.496094 226.558594 211.804688 226.929688 Z M 258.914062 187.238281 C 259.703125 192.628906 260.476562 198.027344 261.214844 203.429688 C 261.804688 207.789062 262.605469 212.230469 263.164062 216.679688 C 266.445312 216.371094 269.726562 216.199219 272.984375 216.21875 C 274.15625 216.21875 274.273438 217.820312 273.175781 218.109375 C 270.023438 218.921875 266.804688 219.558594 263.554688 220.078125 C 262.386719 220.269531 261.214844 220.441406 260.035156 220.601562 C 258.003906 220.871094 255.976562 221.109375 253.933594 221.320312 C 252.375 221.488281 250.824219 221.640625 249.265625 221.777344 C 245.285156 222.148438 241.304688 222.460938 237.386719 222.828125 C 235.605469 223.007812 235.355469 220.851562 237.113281 220.570312 C 240.964844 219.960938 244.855469 219.269531 248.773438 218.628906 C 248.414062 216.171875 248.09375 213.699219 247.765625 211.25 C 246.683594 203.390625 245.59375 195.539062 244.535156 187.679688 C 242.746094 174.390625 241.226562 161.078125 239.875 147.75 C 234.613281 148.730469 229.425781 149.527344 224.453125 149.410156 C 223.476562 149.390625 223.375 148.019531 224.316406 147.820312 C 228.746094 146.851562 233.964844 145.507812 239.523438 144.277344 C 240.09375 144.148438 240.675781 144.027344 241.253906 143.910156 C 243.984375 143.328125 246.785156 142.789062 249.605469 142.351562 C 250.214844 142.257812 250.835938 142.171875 251.445312 142.078125 C 265.894531 140.078125 280.605469 140.980469 288.824219 152.519531 C 294.246094 160.121094 291.644531 169.898438 285.613281 176.308594 C 278.726562 183.628906 268.515625 185.757812 258.914062 187.238281 Z M 202.054688 246.839844 C 168.273438 252.667969 134.453125 258.238281 100.644531 263.898438 C 99.085938 264.160156 98.914062 262.179688 100.433594 261.910156 C 134.15625 255.910156 167.863281 249.808594 201.613281 243.96875 C 235.355469 238.128906 269.054688 231.558594 302.914062 226.5 C 305.144531 226.171875 305.515625 228.890625 303.34375 229.308594 C 269.746094 235.910156 235.796875 241.019531 202.054688 246.839844 Z M 285.953125 103.777344 L 285.644531 103.757812 C 285.636719 103.757812 285.636719 103.757812 285.625 103.757812 L 285.605469 103.757812 C 285.566406 103.757812 285.523438 103.738281 285.476562 103.738281 C 285.355469 103.730469 285.234375 103.710938 285.125 103.679688 C 285.066406 103.671875 285.015625 103.640625 284.953125 103.621094 C 284.855469 103.589844 284.765625 103.558594 284.664062 103.507812 C 284.605469 103.480469 284.554688 103.441406 284.496094 103.410156 C 284.414062 103.359375 284.335938 103.320312 284.253906 103.257812 C 284.203125 103.21875 284.15625 103.171875 284.105469 103.121094 C 284.035156 103.058594 283.964844 103.007812 283.90625 102.941406 C 283.855469 102.878906 283.816406 102.828125 283.773438 102.769531 C 283.726562 102.699219 283.664062 102.628906 283.613281 102.550781 C 283.574219 102.480469 283.546875 102.398438 283.503906 102.328125 C 283.476562 102.257812 283.433594 102.191406 283.414062 102.121094 C 283.375 102.019531 283.355469 101.910156 283.324219 101.808594 C 283.316406 101.75 283.296875 101.710938 283.285156 101.648438 C 282.335938 95.550781 280.753906 89.46875 278.613281 83.578125 C 269.074219 57.300781 248.464844 35.179688 223.476562 24.390625 C 217.996094 22.027344 212.234375 20.167969 206.363281 18.859375 C 178.144531 12.527344 147.59375 18.558594 124.636719 34.988281 C 101.683594 51.398438 86.40625 77.898438 83.074219 106.089844 C 91.816406 99.789062 102.453125 96.910156 112.015625 92.058594 C 116.003906 90.027344 120.363281 85.890625 125.015625 85.5 C 127.90625 85.261719 129.863281 87.101562 132.054688 88.691406 C 136.65625 92.050781 140.875 93.46875 146.316406 91.101562 C 150.855469 89.121094 154.773438 85.679688 158.433594 82.410156 C 164.484375 77.011719 170.335938 70.429688 178.125 67.570312 C 179.164062 67.191406 180.386719 68.570312 179.175781 69.160156 C 171.074219 73.140625 164.964844 80.828125 158.195312 86.601562 C 153.84375 90.308594 148.613281 94.238281 142.835938 95.160156 C 149.664062 99.648438 156.195312 104.578125 163.203125 108.800781 C 164.355469 109.488281 162.746094 110.550781 161.84375 110.089844 C 153.796875 105.980469 146.484375 100.859375 139.386719 95.339844 C 138.945312 95.308594 138.496094 95.269531 138.054688 95.199219 C 134.035156 94.578125 131.144531 92.128906 127.824219 90 C 125.554688 88.550781 124.515625 88.808594 122.136719 90.167969 C 119.753906 91.539062 117.515625 93.140625 115.085938 94.441406 C 104.574219 100.070312 92.523438 102.921875 83.292969 110.769531 C 83.074219 110.949219 82.84375 111.070312 82.613281 111.160156 C 82.464844 113.371094 82.386719 115.578125 82.386719 117.789062 C 82.386719 117.800781 82.386719 117.800781 82.386719 117.808594 C 82.386719 117.898438 82.363281 117.988281 82.355469 118.078125 C 82.355469 118.140625 82.355469 118.199219 82.34375 118.25 C 82.324219 118.359375 82.285156 118.46875 82.253906 118.578125 C 82.246094 118.609375 82.234375 118.648438 82.214844 118.679688 C 82.175781 118.789062 82.125 118.890625 82.074219 118.988281 C 82.054688 119.019531 82.042969 119.050781 82.023438 119.078125 C 81.964844 119.179688 81.894531 119.269531 81.824219 119.371094 C 81.804688 119.390625 81.792969 119.410156 81.773438 119.429688 C 81.695312 119.519531 81.605469 119.609375 81.515625 119.691406 C 81.503906 119.699219 81.484375 119.710938 81.472656 119.71875 C 81.375 119.808594 81.265625 119.878906 81.15625 119.949219 C 81.15625 119.949219 81.15625 119.949219 81.144531 119.949219 C 80.886719 120.109375 80.59375 120.21875 80.285156 120.269531 C 69.863281 122.710938 59.464844 125.769531 49.324219 129.371094 C 65.90625 211.109375 78.964844 294.191406 88.355469 377.5 C 88.363281 377.5 88.363281 377.5 88.375 377.5 C 104.726562 375.777344 121.144531 374.808594 137.574219 374.660156 C 146.996094 374.570312 156.40625 374.738281 165.816406 375.160156 C 174.714844 375.570312 183.636719 376.640625 192.546875 376.601562 C 196.644531 376.589844 203.835938 376.839844 207.453125 374.390625 C 210.136719 372.570312 211.746094 366.898438 213.234375 364.117188 C 216.464844 358.078125 219.914062 352.160156 223.554688 346.367188 C 224.09375 345.488281 224.65625 344.617188 225.214844 343.75 C 225.476562 343.339844 225.746094 342.929688 226.003906 342.519531 C 235.234375 328.308594 245.703125 314.96875 257.214844 302.539062 C 258.226562 301.449219 259.925781 301.179688 261.136719 302.117188 C 263.265625 303.789062 265.394531 305.480469 267.523438 307.167969 C 271.105469 302.980469 274.535156 298.679688 277.753906 294.21875 C 278.234375 293.570312 278.695312 292.917969 279.15625 292.261719 C 281.125 289.460938 283.015625 286.601562 284.796875 283.667969 C 284.835938 283.617188 284.863281 283.558594 284.894531 283.511719 C 285.375 282.710938 285.835938 281.851562 286.296875 281 C 282.925781 277.539062 279.015625 274.558594 275.945312 270.777344 C 272.535156 272.761719 268.523438 275.441406 267.695312 279.160156 C 267.425781 280.390625 265.894531 280.679688 264.914062 280.191406 C 260.296875 277.910156 258.066406 273.140625 255.046875 269.230469 C 251.003906 263.988281 245.796875 259.820312 242.195312 254.210938 C 241.984375 253.867188 242.566406 253.660156 242.765625 253.917969 C 246.546875 258.820312 251.546875 262.480469 255.773438 266.949219 C 258.664062 269.988281 261.105469 274.839844 264.914062 276.96875 C 266.816406 272.730469 271.644531 269.75 275.414062 267.550781 C 276.40625 266.980469 277.554688 267.058594 278.246094 268.011719 C 280.863281 271.570312 285.003906 274.367188 288.503906 277.539062 C 289.714844 276.101562 291.214844 275.027344 293.40625 274.867188 C 296.335938 274.648438 299.304688 276.089844 301.996094 277.019531 C 305.15625 278.128906 308.324219 279.25 311.484375 280.367188 C 317.546875 271.730469 325.214844 263.089844 334.253906 257.25 L 314.894531 105.578125 C 305.246094 104.980469 295.605469 104.378906 285.953125 103.777344 Z M 342.214844 316.789062 C 342.046875 316.679688 341.875 316.570312 341.703125 316.449219 C 331.90625 311.417969 322.375 305.898438 313.175781 299.828125 C 310.753906 298.230469 308.425781 296.398438 305.976562 294.867188 C 304.65625 294.050781 303.304688 293.328125 301.886719 292.777344 C 299.863281 292 297.714844 291.578125 295.34375 291.769531 C 291.695312 292.070312 288.085938 292.800781 284.464844 293.460938 C 283.664062 293.609375 282.855469 293.75 282.054688 293.890625 C 282.023438 293.949219 281.984375 294 281.945312 294.058594 C 278.234375 299.320312 274.226562 304.351562 269.90625 309.101562 C 283.996094 320.488281 297.703125 332.539062 310.074219 345.730469 C 311.203125 344.011719 312.996094 342.808594 315.105469 341.949219 C 312.035156 339.230469 308.976562 336.511719 305.90625 333.777344 C 299.253906 327.867188 292.363281 322.039062 286.136719 315.691406 C 285.296875 314.828125 286.996094 313.949219 287.726562 314.5 C 296.003906 320.761719 303.753906 327.851562 311.613281 334.640625 C 314.003906 336.699219 316.394531 338.769531 318.785156 340.828125 C 322.496094 339.988281 326.503906 339.777344 329.375 339.5 C 329.566406 339.480469 329.753906 339.460938 329.933594 339.441406 C 335.226562 338.878906 340.546875 338.628906 345.855469 338.71875 L 345.585938 337.128906 C 344.464844 330.351562 343.34375 323.570312 342.214844 316.789062 Z M 348.554688 342.570312 L 353.945312 449.679688 C 270.054688 467.941406 184.195312 480.988281 98.664062 488.488281 C 96.015625 452.109375 92.636719 415.667969 88.554688 379.289062 C 106.304688 377.730469 124.113281 377.027344 141.933594 377.238281 C 151.664062 377.359375 161.40625 377.75 171.113281 378.410156 C 180.164062 379.019531 189.316406 380.351562 198.394531 379.789062 C 202.144531 379.550781 206.035156 379.167969 209.59375 377.941406 C 213.105469 376.71875 213.675781 373.808594 215.324219 370.628906 C 217.523438 366.378906 219.785156 362.167969 222.136719 358.011719 C 221.726562 362.527344 221.476562 367.089844 221.363281 371.660156 C 217.554688 378.417969 215.476562 386.628906 212.773438 393.820312 C 212.496094 394.578125 213.976562 394.851562 214.273438 394.207031 C 216.503906 389.398438 219.296875 384.21875 221.285156 378.949219 C 221.304688 388.417969 221.835938 397.859375 222.65625 407.011719 C 218.503906 408 214.183594 409.898438 211.984375 413.691406 C 211.683594 414.199219 212.425781 414.511719 212.816406 414.289062 C 216.714844 412.101562 219.886719 409.890625 224.453125 409.148438 C 225.175781 409.027344 225.886719 408.527344 225.835938 407.71875 C 225.113281 396.929688 224.445312 386.179688 224.445312 375.359375 C 224.433594 369.609375 224.65625 363.851562 224.855469 358.109375 C 224.914062 356.410156 224.976562 354.71875 225.023438 353.019531 C 226.265625 350.929688 227.523438 348.859375 228.824219 346.808594 C 237.84375 332.550781 248.09375 319.117188 259.40625 306.609375 C 261.113281 307.949219 262.804688 309.300781 264.484375 310.660156 C 265.234375 311.261719 265.984375 311.867188 266.734375 312.488281 C 281.316406 324.378906 295.226562 336.980469 309.273438 349.527344 C 310.136719 350.300781 312.074219 350.109375 312.296875 348.769531 C 312.734375 346.128906 314.914062 344.808594 317.484375 344.070312 C 318.824219 343.691406 320.265625 343.460938 321.625 343.289062 C 322.773438 343.148438 323.863281 343.050781 324.785156 342.917969 C 326.40625 342.699219 328.035156 342.511719 329.664062 342.351562 C 332.835938 342.039062 336.023438 341.828125 339.203125 341.71875 C 341.804688 341.628906 344.40625 341.617188 347.003906 341.691406 L 347.015625 341.691406 C 347.046875 341.71875 347.074219 341.738281 347.105469 341.761719 C 347.183594 341.820312 347.265625 341.867188 347.34375 341.910156 C 347.386719 341.929688 347.433594 341.960938 347.476562 341.980469 C 347.835938 342.179688 348.195312 342.378906 348.554688 342.570312" fill="#f5fcfd"/></g><g id="change2_3"><path d="M 122.933594 227.050781 C 123.546875 230.820312 124.023438 234.75 124.613281 238.660156 C 122.363281 239.007812 120.125 239.359375 117.875 239.691406 C 117.113281 235.660156 116.136719 231.640625 115.503906 227.777344 C 114.054688 219.027344 112.554688 210.289062 110.964844 201.558594 C 108.265625 186.71875 105.734375 171.828125 102.996094 157 C 102.976562 156.910156 102.964844 156.828125 102.945312 156.738281 C 105.945312 155.851562 109.054688 155.019531 112.195312 154.339844 C 112.835938 160.089844 113.824219 165.839844 114.644531 171.5 C 116.003906 180.941406 117.375 190.371094 118.746094 199.800781 C 120.066406 208.898438 121.445312 217.980469 122.933594 227.050781" fill="#f5fcfd"/></g><g clip-path="url(#b)" id="change3_1"><path d="M 112.195312 154.339844 C 112.835938 160.089844 113.824219 165.839844 114.644531 171.5 C 116.003906 180.941406 117.375 190.367188 118.746094 199.800781 C 120.066406 208.898438 121.445312 217.980469 122.933594 227.050781 C 123.546875 230.820312 124.023438 234.75 124.613281 238.660156 C 122.363281 239.007812 120.125 239.359375 117.875 239.691406 C 117.113281 235.660156 116.136719 231.640625 115.503906 227.777344 C 114.054688 219.027344 112.554688 210.289062 110.964844 201.558594 C 108.265625 186.71875 105.734375 171.828125 102.996094 157 C 102.976562 156.910156 102.964844 156.828125 102.945312 156.738281 C 105.945312 155.851562 109.054688 155.019531 112.195312 154.339844 Z M 150.914062 164.941406 C 156.445312 173.570312 154.753906 183.558594 147.886719 190.910156 C 141.335938 197.910156 132.363281 200.21875 123.773438 203.488281 C 123.484375 201.671875 123.183594 199.859375 122.886719 198.039062 C 121.394531 188.988281 119.914062 179.941406 118.414062 170.890625 C 117.476562 165.199219 116.664062 159.390625 115.515625 153.679688 C 129.085938 151.238281 142.796875 152.257812 150.914062 164.941406 Z M 106.625 202.378906 C 107.945312 210.800781 109.453125 219.210938 111.136719 227.570312 C 111.953125 231.628906 112.535156 236.027344 113.363281 240.351562 C 110.296875 240.789062 107.214844 241.179688 104.125 241.488281 C 102.613281 241.648438 102.835938 243.421875 104.316406 243.390625 C 107.503906 243.320312 110.703125 243.179688 113.90625 242.960938 C 115.316406 242.867188 116.734375 242.738281 118.144531 242.601562 C 118.226562 242.601562 118.296875 242.589844 118.375 242.578125 C 120.625 242.359375 122.875 242.089844 125.105469 241.738281 C 126.65625 241.507812 128.195312 241.238281 129.726562 240.941406 C 132.585938 240.378906 135.40625 239.699219 138.195312 238.878906 C 139.703125 238.429688 139.015625 236.570312 137.574219 236.757812 C 134.804688 237.117188 132.046875 237.519531 129.285156 237.941406 C 128.605469 233.648438 127.765625 229.378906 127.164062 225.25 C 126.273438 219.238281 125.34375 213.238281 124.386719 207.238281 C 128.035156 206.398438 131.765625 205.257812 135.363281 203.769531 C 138.605469 208.820312 142.535156 213.527344 146.136719 218.277344 C 148.894531 221.921875 151.65625 225.570312 154.453125 229.179688 C 156.773438 232.191406 158.554688 235.351562 162.085938 236.910156 C 162.785156 237.210938 164.003906 236.710938 163.894531 235.828125 C 163.363281 231.578125 159.695312 228.691406 157.074219 225.460938 C 154.804688 222.679688 152.515625 219.921875 150.226562 217.148438 C 146.214844 212.308594 142.34375 207.171875 137.964844 202.628906 C 143.664062 199.980469 148.914062 196.421875 152.824219 191.777344 C 159.84375 183.460938 161.273438 172.308594 155.296875 162.980469 C 146.035156 148.550781 130.125 147.160156 114.824219 150.480469 C 113.84375 150.691406 112.863281 150.929688 111.894531 151.179688 C 108.675781 152 105.496094 153.019531 102.445312 154.140625 C 101.703125 154.421875 100.984375 154.691406 100.265625 154.980469 C 97.15625 156.191406 94.195312 157.507812 91.457031 158.828125 C 90.496094 159.289062 91.433594 160.339844 92.246094 160.078125 C 94.835938 159.257812 97.613281 158.351562 100.515625 157.460938 C 102.113281 172.480469 104.285156 187.449219 106.625 202.378906 Z M 191.035156 149.429688 C 192.503906 149.320312 194.023438 149.269531 195.566406 149.230469 C 197.40625 163.269531 199.285156 177.289062 201.386719 191.277344 C 202.546875 199.058594 203.746094 206.839844 204.925781 214.617188 C 205.363281 217.539062 205.664062 220.71875 206.085938 223.910156 C 203.496094 224.128906 200.894531 224.441406 198.324219 224.851562 C 197.835938 221.851562 197.226562 218.890625 196.855469 216.140625 C 195.824219 208.589844 194.835938 201.027344 193.753906 193.480469 C 191.664062 178.910156 189.324219 164.378906 186.984375 149.851562 C 188.375 149.671875 189.726562 149.519531 191.035156 149.429688 Z M 167.566406 150.828125 C 172.996094 151.851562 179.316406 150.859375 185.214844 150.078125 C 186.613281 164.789062 188.023438 179.507812 189.664062 194.199219 C 190.464844 201.480469 191.386719 208.738281 192.253906 216.007812 C 192.625 219.039062 192.765625 222.429688 193.085938 225.820312 C 189.933594 226.488281 186.875 227.308594 183.976562 228.308594 C 183.363281 228.519531 183.296875 229.398438 184.046875 229.449219 C 187.105469 229.671875 190.296875 229.671875 193.523438 229.5 C 195.304688 229.410156 197.105469 229.257812 198.90625 229.070312 C 201.523438 228.789062 204.144531 228.410156 206.714844 227.949219 C 208.433594 227.648438 210.136719 227.300781 211.804688 226.929688 C 213.496094 226.558594 215.15625 226.148438 216.765625 225.71875 C 218.074219 225.367188 217.863281 223.519531 216.496094 223.507812 C 214.796875 223.5 213.054688 223.519531 211.285156 223.601562 C 210.746094 220.539062 210.085938 217.519531 209.625 214.691406 C 208.304688 206.617188 207.003906 198.550781 205.664062 190.488281 C 203.386719 176.679688 200.894531 162.921875 198.34375 149.171875 C 202.914062 149.058594 207.546875 148.828125 211.683594 147.410156 C 212.636719 147.078125 212.863281 145.789062 211.785156 145.441406 C 207.484375 144.078125 202.433594 144.277344 197.535156 144.808594 C 196.695312 144.898438 195.863281 145 195.035156 145.101562 C 192.953125 145.359375 190.933594 145.640625 189.035156 145.839844 C 182.175781 146.558594 173.554688 146.640625 167.363281 149.929688 C 166.894531 150.179688 167.09375 150.75 167.566406 150.828125 Z M 241.90625 147.359375 C 244.574219 146.851562 247.265625 146.308594 249.945312 145.839844 C 251.164062 158.039062 252.703125 170.210938 254.425781 182.367188 C 254.574219 183.429688 254.726562 184.488281 254.875 185.550781 C 254.953125 186.101562 255.035156 186.648438 255.113281 187.199219 C 256.003906 193.460938 256.90625 199.710938 257.855469 205.960938 C 258.414062 209.617188 258.855469 213.367188 259.433594 217.078125 C 257.445312 217.308594 255.453125 217.589844 253.476562 217.890625 C 253.164062 215.699219 252.804688 213.5 252.476562 211.320312 C 251.246094 203.191406 250.015625 195.050781 248.753906 186.921875 C 246.714844 173.691406 244.386719 160.527344 241.90625 147.367188 Z M 281.726562 150.339844 C 289.945312 156.527344 289.804688 166.730469 283.183594 174.117188 C 277.023438 181.007812 267.335938 182.910156 258.496094 184.367188 C 258.324219 183.179688 258.15625 181.988281 257.976562 180.800781 C 256.234375 168.980469 254.304688 157.199219 252.09375 145.46875 C 262.515625 143.808594 272.765625 143.578125 281.726562 150.339844 Z M 224.453125 149.410156 C 229.425781 149.527344 234.613281 148.730469 239.875 147.75 C 241.226562 161.078125 242.746094 174.390625 244.535156 187.679688 C 245.59375 195.539062 246.683594 203.390625 247.765625 211.25 C 248.09375 213.699219 248.414062 216.171875 248.773438 218.628906 C 244.855469 219.269531 240.964844 219.960938 237.113281 220.570312 C 235.355469 220.851562 235.605469 223.007812 237.386719 222.828125 C 241.304688 222.460938 245.285156 222.148438 249.265625 221.777344 C 250.824219 221.640625 252.375 221.488281 253.933594 221.320312 C 255.976562 221.109375 258.003906 220.867188 260.035156 220.601562 C 261.214844 220.441406 262.386719 220.269531 263.554688 220.078125 C 266.804688 219.558594 270.023438 218.921875 273.175781 218.109375 C 274.273438 217.820312 274.15625 216.21875 272.984375 216.21875 C 269.726562 216.199219 266.445312 216.367188 263.164062 216.679688 C 262.605469 212.230469 261.804688 207.789062 261.214844 203.429688 C 260.476562 198.027344 259.703125 192.628906 258.914062 187.238281 C 268.515625 185.757812 278.726562 183.628906 285.613281 176.308594 C 291.644531 169.898438 294.246094 160.117188 288.824219 152.519531 C 280.605469 140.980469 265.894531 140.078125 251.445312 142.078125 C 250.835938 142.171875 250.214844 142.257812 249.605469 142.351562 C 246.785156 142.789062 243.984375 143.328125 241.253906 143.910156 C 240.675781 144.027344 240.09375 144.148438 239.523438 144.277344 C 233.964844 145.507812 228.746094 146.851562 224.316406 147.820312 C 223.375 148.019531 223.476562 149.390625 224.453125 149.410156 Z M 201.613281 243.96875 C 235.355469 238.128906 269.054688 231.558594 302.914062 226.5 C 305.144531 226.171875 305.515625 228.890625 303.34375 229.308594 C 269.746094 235.910156 235.796875 241.019531 202.054688 246.839844 C 168.273438 252.667969 134.453125 258.238281 100.644531 263.898438 C 99.085938 264.160156 98.914062 262.179688 100.433594 261.910156 C 134.15625 255.910156 167.863281 249.808594 201.613281 243.96875 Z M 98.664062 488.488281 C 96.015625 452.109375 92.636719 415.667969 88.554688 379.289062 C 106.304688 377.730469 124.113281 377.027344 141.933594 377.238281 C 151.664062 377.359375 161.40625 377.75 171.113281 378.410156 C 180.164062 379.019531 189.316406 380.351562 198.394531 379.789062 C 202.144531 379.550781 206.035156 379.167969 209.59375 377.941406 C 213.105469 376.71875 213.675781 373.808594 215.324219 370.628906 C 217.523438 366.378906 219.785156 362.167969 222.136719 358.011719 C 221.726562 362.527344 221.476562 367.089844 221.363281 371.660156 C 217.554688 378.417969 215.476562 386.628906 212.773438 393.820312 C 212.496094 394.578125 213.976562 394.851562 214.273438 394.207031 C 216.503906 389.398438 219.296875 384.21875 221.285156 378.949219 C 221.304688 388.417969 221.835938 397.859375 222.65625 407.011719 C 218.503906 408 214.183594 409.898438 211.984375 413.691406 C 211.683594 414.199219 212.425781 414.511719 212.816406 414.289062 C 216.714844 412.101562 219.886719 409.890625 224.453125 409.148438 C 225.175781 409.027344 225.886719 408.527344 225.835938 407.71875 C 225.113281 396.929688 224.445312 386.179688 224.445312 375.359375 C 224.433594 369.609375 224.65625 363.851562 224.855469 358.109375 C 224.914062 356.410156 224.976562 354.71875 225.023438 353.019531 C 226.265625 350.929688 227.523438 348.859375 228.824219 346.808594 C 237.84375 332.550781 248.09375 319.117188 259.40625 306.609375 C 261.113281 307.949219 262.804688 309.300781 264.484375 310.660156 C 265.234375 311.261719 265.984375 311.867188 266.734375 312.488281 C 281.316406 324.378906 295.226562 336.980469 309.273438 349.527344 C 310.136719 350.300781 312.074219 350.109375 312.296875 348.769531 C 312.734375 346.128906 314.914062 344.808594 317.484375 344.070312 C 318.824219 343.691406 320.265625 343.460938 321.625 343.289062 C 322.773438 343.148438 323.863281 343.050781 324.785156 342.917969 C 326.40625 342.699219 328.035156 342.511719 329.664062 342.351562 C 332.835938 342.039062 336.023438 341.828125 339.203125 341.71875 C 341.804688 341.628906 344.40625 341.617188 347.003906 341.691406 L 347.015625 341.691406 C 347.046875 341.71875 347.074219 341.738281 347.105469 341.761719 C 347.183594 341.820312 347.265625 341.867188 347.34375 341.910156 C 347.386719 341.929688 347.433594 341.960938 347.476562 341.980469 C 347.835938 342.179688 348.195312 342.378906 348.554688 342.570312 L 353.945312 449.679688 C 270.054688 467.941406 184.195312 480.988281 98.664062 488.488281 Z M 34.355469 448.21875 C 30.253906 337.148438 20.566406 225.058594 5.542969 114.949219 L 11.566406 117.230469 C 22.464844 121.351562 33.363281 125.46875 44.265625 129.589844 C 60.894531 211.441406 73.984375 294.628906 83.375 378.050781 C 83.445312 378.617188 83.515625 379.179688 83.566406 379.75 C 87.585938 415.519531 90.914062 451.328125 93.554688 487.101562 C 73.824219 474.140625 54.085938 461.167969 34.355469 448.21875 Z M 43.195312 94.527344 L 74.003906 116.660156 C 64.722656 119.007812 55.472656 121.828125 46.457031 125.078125 C 35.414062 120.898438 24.375 116.71875 13.335938 112.550781 L 9.425781 111.070312 Z M 123.925781 8.738281 C 145.085938 2.878906 168.304688 3.980469 189.726562 11.558594 C 165.523438 10.277344 141.066406 17.078125 121.726562 30.917969 C 95.613281 49.589844 78.972656 80.699219 77.503906 113.007812 L 46.246094 90.570312 C 55.015625 52 86.023438 19.230469 123.925781 8.738281 Z M 223.476562 24.390625 C 248.464844 35.179688 269.074219 57.300781 278.613281 83.578125 C 280.753906 89.46875 282.335938 95.550781 283.285156 101.648438 C 283.296875 101.710938 283.316406 101.75 283.324219 101.808594 C 283.355469 101.910156 283.375 102.019531 283.414062 102.117188 C 283.433594 102.191406 283.476562 102.257812 283.503906 102.328125 C 283.546875 102.398438 283.574219 102.480469 283.613281 102.550781 C 283.664062 102.628906 283.726562 102.699219 283.773438 102.769531 C 283.816406 102.828125 283.855469 102.878906 283.90625 102.941406 C 283.964844 103.007812 284.035156 103.058594 284.105469 103.117188 C 284.15625 103.171875 284.203125 103.21875 284.253906 103.257812 C 284.335938 103.320312 284.414062 103.359375 284.496094 103.410156 C 284.554688 103.441406 284.605469 103.480469 284.664062 103.507812 C 284.765625 103.558594 284.855469 103.589844 284.953125 103.617188 C 285.015625 103.640625 285.066406 103.671875 285.125 103.679688 C 285.234375 103.710938 285.355469 103.730469 285.476562 103.738281 C 285.523438 103.738281 285.566406 103.757812 285.605469 103.757812 L 285.625 103.757812 C 285.636719 103.757812 285.636719 103.757812 285.644531 103.757812 L 285.953125 103.777344 C 295.605469 104.378906 305.246094 104.980469 314.894531 105.578125 L 334.253906 257.25 C 325.214844 263.089844 317.546875 271.730469 311.484375 280.367188 C 308.324219 279.25 305.15625 278.128906 301.996094 277.019531 C 299.304688 276.089844 296.335938 274.648438 293.40625 274.867188 C 291.214844 275.027344 289.714844 276.101562 288.503906 277.539062 C 285.003906 274.367188 280.863281 271.570312 278.246094 268.011719 C 277.554688 267.058594 276.40625 266.980469 275.414062 267.550781 C 271.644531 269.75 266.816406 272.730469 264.914062 276.96875 C 261.105469 274.839844 258.664062 269.988281 255.773438 266.949219 C 251.546875 262.480469 246.546875 258.820312 242.765625 253.917969 C 242.566406 253.660156 241.984375 253.867188 242.195312 254.210938 C 245.796875 259.820312 251.003906 263.988281 255.046875 269.230469 C 258.066406 273.140625 260.296875 277.910156 264.914062 280.191406 C 265.894531 280.679688 267.425781 280.390625 267.695312 279.160156 C 268.523438 275.441406 272.535156 272.761719 275.945312 270.777344 C 279.015625 274.558594 282.925781 277.539062 286.296875 281 C 285.835938 281.851562 285.375 282.710938 284.894531 283.511719 C 284.863281 283.558594 284.835938 283.617188 284.796875 283.667969 C 283.015625 286.601562 281.125 289.460938 279.15625 292.261719 C 278.695312 292.917969 278.234375 293.570312 277.753906 294.21875 C 274.535156 298.679688 271.105469 302.980469 267.523438 307.167969 C 265.394531 305.480469 263.265625 303.789062 261.136719 302.117188 C 259.925781 301.179688 258.226562 301.449219 257.214844 302.539062 C 245.703125 314.96875 235.234375 328.308594 226.003906 342.519531 C 225.746094 342.929688 225.476562 343.339844 225.214844 343.75 C 224.65625 344.617188 224.09375 345.488281 223.554688 346.367188 C 219.914062 352.160156 216.464844 358.078125 213.234375 364.117188 C 211.746094 366.898438 210.136719 372.570312 207.453125 374.390625 C 203.835938 376.839844 196.644531 376.589844 192.546875 376.601562 C 183.636719 376.640625 174.714844 375.570312 165.816406 375.160156 C 156.40625 374.738281 146.996094 374.570312 137.574219 374.660156 C 121.144531 374.808594 104.726562 375.777344 88.375 377.5 C 88.363281 377.5 88.363281 377.5 88.355469 377.5 C 78.964844 294.191406 65.90625 211.109375 49.324219 129.367188 C 59.464844 125.769531 69.863281 122.710938 80.285156 120.269531 C 80.59375 120.21875 80.886719 120.109375 81.144531 119.949219 C 81.15625 119.949219 81.15625 119.949219 81.15625 119.949219 C 81.265625 119.878906 81.375 119.808594 81.472656 119.71875 C 81.484375 119.710938 81.503906 119.699219 81.515625 119.691406 C 81.605469 119.609375 81.695312 119.519531 81.773438 119.429688 C 81.792969 119.410156 81.804688 119.390625 81.824219 119.367188 C 81.894531 119.269531 81.964844 119.179688 82.023438 119.078125 C 82.042969 119.050781 82.054688 119.019531 82.074219 118.988281 C 82.125 118.890625 82.175781 118.789062 82.214844 118.679688 C 82.234375 118.648438 82.246094 118.609375 82.253906 118.578125 C 82.285156 118.46875 82.324219 118.359375 82.34375 118.25 C 82.355469 118.199219 82.355469 118.140625 82.355469 118.078125 C 82.363281 117.988281 82.386719 117.898438 82.386719 117.808594 C 82.386719 117.800781 82.386719 117.800781 82.386719 117.789062 C 82.386719 115.578125 82.464844 113.367188 82.613281 111.160156 C 82.84375 111.070312 83.074219 110.949219 83.292969 110.769531 C 92.523438 102.921875 104.574219 100.070312 115.085938 94.441406 C 117.515625 93.140625 119.753906 91.539062 122.136719 90.167969 C 124.515625 88.808594 125.554688 88.550781 127.824219 90 C 131.144531 92.128906 134.035156 94.578125 138.054688 95.199219 C 138.496094 95.269531 138.945312 95.308594 139.386719 95.339844 C 146.484375 100.859375 153.796875 105.980469 161.84375 110.089844 C 162.746094 110.550781 164.355469 109.488281 163.203125 108.800781 C 156.195312 104.578125 149.664062 99.648438 142.835938 95.160156 C 148.613281 94.238281 153.84375 90.308594 158.195312 86.601562 C 164.964844 80.828125 171.074219 73.140625 179.175781 69.160156 C 180.386719 68.570312 179.164062 67.191406 178.125 67.570312 C 170.335938 70.429688 164.484375 77.011719 158.433594 82.410156 C 154.773438 85.679688 150.855469 89.117188 146.316406 91.101562 C 140.875 93.46875 136.65625 92.050781 132.054688 88.691406 C 129.863281 87.101562 127.90625 85.261719 125.015625 85.5 C 120.363281 85.890625 116.003906 90.027344 112.015625 92.058594 C 102.453125 96.910156 91.816406 99.789062 83.074219 106.089844 C 86.40625 77.898438 101.683594 51.398438 124.636719 34.988281 C 147.59375 18.558594 178.144531 12.527344 206.363281 18.859375 C 212.234375 20.167969 217.996094 22.027344 223.476562 24.390625 Z M 296.886719 86.078125 C 301.183594 90.851562 305.59375 95.601562 310.074219 100.269531 C 302.675781 99.808594 295.285156 99.351562 287.894531 98.890625 C 287.09375 94.390625 285.976562 89.917969 284.554688 85.527344 C 288.636719 85.828125 292.753906 86.019531 296.886719 86.078125 Z M 335.945312 270.460938 C 333.996094 272.949219 332.054688 275.441406 330.105469 277.941406 C 327.953125 280.699219 325.796875 283.46875 323.636719 286.230469 C 323.59375 286.277344 323.566406 286.328125 323.535156 286.378906 C 317.746094 287.710938 311.976562 289.320312 306.375 291.199219 C 303.636719 289.667969 300.804688 288.648438 297.304688 288.761719 C 292.996094 288.878906 288.375 289.71875 283.976562 290.859375 C 285.074219 289.011719 286.136719 287.050781 287.285156 285.210938 C 287.664062 284.589844 288.054688 283.988281 288.453125 283.410156 C 289.125 282.441406 289.835938 281.527344 290.59375 280.710938 C 290.773438 280.519531 290.953125 280.339844 291.136719 280.179688 C 294.753906 276.890625 298.425781 279.351562 302.304688 280.667969 C 305.355469 281.710938 308.414062 282.738281 311.464844 283.777344 C 312.40625 284.089844 313.425781 283.609375 313.945312 282.828125 C 319.765625 274.027344 326.90625 267.46875 334.746094 261.089844 Z M 337.046875 299.148438 C 336.113281 302.167969 335.195312 305.191406 334.285156 308.21875 C 326.296875 303.859375 318.515625 299.140625 310.933594 294.078125 C 310.773438 293.96875 310.613281 293.859375 310.453125 293.761719 C 315.175781 292.578125 319.886719 291.328125 324.574219 290.050781 C 329.074219 292.578125 333.253906 295.628906 337.046875 299.148438 Z M 341.703125 316.449219 C 341.875 316.570312 342.046875 316.679688 342.214844 316.789062 C 343.34375 323.570312 344.464844 330.351562 345.585938 337.128906 L 345.855469 338.71875 C 340.546875 338.628906 335.226562 338.878906 329.933594 339.441406 C 329.753906 339.460938 329.566406 339.480469 329.375 339.5 C 326.503906 339.777344 322.496094 339.988281 318.785156 340.828125 C 316.394531 338.769531 314.003906 336.699219 311.613281 334.640625 C 303.753906 327.851562 296.003906 320.761719 287.726562 314.5 C 286.996094 313.949219 285.296875 314.828125 286.136719 315.691406 C 292.363281 322.039062 299.253906 327.867188 305.90625 333.777344 C 308.976562 336.511719 312.035156 339.230469 315.105469 341.949219 C 312.996094 342.808594 311.203125 344.011719 310.074219 345.730469 C 297.703125 332.539062 283.996094 320.488281 269.90625 309.101562 C 274.226562 304.351562 278.234375 299.320312 281.945312 294.058594 C 281.984375 294 282.023438 293.949219 282.054688 293.890625 C 282.855469 293.75 283.664062 293.609375 284.464844 293.460938 C 288.085938 292.800781 291.695312 292.070312 295.34375 291.769531 C 297.714844 291.578125 299.863281 292 301.886719 292.777344 C 303.304688 293.328125 304.65625 294.050781 305.976562 294.867188 C 308.425781 296.398438 310.753906 298.230469 313.175781 299.828125 C 322.375 305.898438 331.90625 311.417969 341.703125 316.449219 Z M 359.035156 451.410156 L 353.523438 341.960938 L 353.484375 341.089844 L 353.476562 340.941406 C 353.476562 340.859375 353.476562 340.769531 353.453125 340.691406 C 353.433594 340.527344 353.394531 340.367188 353.335938 340.21875 C 353.316406 340.148438 353.285156 340.070312 353.246094 340 C 353.214844 339.929688 353.183594 339.859375 353.136719 339.789062 C 353.066406 339.660156 352.976562 339.527344 352.863281 339.417969 C 352.816406 339.359375 352.765625 339.300781 352.703125 339.25 C 352.613281 339.160156 352.515625 339.078125 352.414062 339.011719 L 352.40625 339.011719 C 352.335938 338.960938 352.273438 338.910156 352.203125 338.878906 C 352.164062 338.851562 352.113281 338.828125 352.074219 338.808594 C 351.664062 338.578125 351.246094 338.351562 350.824219 338.117188 L 350.523438 336.308594 C 349.34375 329.179688 348.164062 322.050781 346.976562 314.917969 C 346.964844 314.859375 346.953125 314.808594 346.933594 314.761719 C 346.914062 314.640625 346.886719 314.539062 346.835938 314.429688 C 346.804688 314.351562 346.773438 314.277344 346.734375 314.199219 C 346.636719 314 346.503906 313.808594 346.34375 313.640625 C 346.296875 313.589844 346.246094 313.539062 346.195312 313.488281 C 346.066406 313.367188 345.925781 313.261719 345.765625 313.167969 C 343.625 311.71875 341.464844 310.261719 339.324219 308.800781 C 340.285156 305.640625 341.246094 302.488281 342.214844 299.328125 C 342.234375 299.261719 342.253906 299.191406 342.273438 299.117188 C 342.273438 299.109375 342.285156 299.101562 342.285156 299.089844 C 342.316406 298.980469 342.34375 298.867188 342.355469 298.761719 C 342.375 298.640625 342.386719 298.511719 342.386719 298.390625 C 342.386719 298.269531 342.375 298.160156 342.355469 298.039062 C 342.34375 297.910156 342.316406 297.777344 342.273438 297.660156 C 342.265625 297.609375 342.246094 297.570312 342.234375 297.527344 C 342.203125 297.429688 342.164062 297.339844 342.105469 297.25 C 342.066406 297.160156 342.015625 297.070312 341.953125 296.988281 C 341.925781 296.949219 341.894531 296.898438 341.863281 296.859375 C 341.804688 296.769531 341.734375 296.699219 341.65625 296.617188 C 341.644531 296.609375 341.636719 296.601562 341.625 296.589844 C 338.414062 293.480469 334.914062 290.667969 331.175781 288.21875 C 330.566406 287.820312 329.953125 287.429688 329.335938 287.050781 C 329.914062 286.300781 330.503906 285.550781 331.09375 284.800781 C 332.074219 283.539062 333.066406 282.269531 334.054688 281.011719 C 336.175781 278.277344 338.304688 275.550781 340.425781 272.820312 C 340.453125 272.777344 340.484375 272.75 340.515625 272.710938 C 340.574219 272.628906 340.636719 272.550781 340.683594 272.46875 C 340.695312 272.460938 340.703125 272.441406 340.703125 272.429688 C 340.734375 272.378906 340.765625 272.339844 340.785156 272.289062 C 340.796875 272.277344 340.796875 272.277344 340.796875 272.269531 C 340.835938 272.179688 340.875 272.078125 340.914062 271.980469 C 340.945312 271.890625 340.964844 271.800781 340.984375 271.710938 C 341.003906 271.691406 341.003906 271.667969 341.003906 271.640625 C 341.023438 271.570312 341.035156 271.5 341.035156 271.417969 C 341.054688 271.238281 341.054688 271.050781 341.023438 270.859375 C 341.015625 270.777344 341.003906 270.710938 340.996094 270.628906 L 339.316406 257.441406 L 338.945312 254.539062 L 319.695312 103.710938 C 319.683594 103.671875 319.675781 103.628906 319.664062 103.589844 C 319.65625 103.519531 319.636719 103.449219 319.613281 103.378906 C 319.59375 103.289062 319.566406 103.210938 319.535156 103.117188 C 319.515625 103.058594 319.476562 102.988281 319.445312 102.929688 C 319.40625 102.839844 319.363281 102.757812 319.316406 102.691406 C 319.273438 102.628906 319.234375 102.570312 319.195312 102.519531 C 319.136719 102.441406 319.074219 102.367188 319.003906 102.300781 C 318.984375 102.269531 318.964844 102.25 318.945312 102.230469 C 318.765625 102.058594 318.59375 101.878906 318.425781 101.699219 L 318.136719 101.421875 C 311.933594 95.070312 305.785156 88.511719 299.875 81.941406 C 299.855469 81.917969 299.84375 81.917969 299.835938 81.898438 C 299.765625 81.828125 299.695312 81.769531 299.625 81.710938 C 299.566406 81.667969 299.515625 81.617188 299.464844 81.578125 C 299.394531 81.527344 299.316406 81.488281 299.246094 81.449219 C 299.175781 81.410156 299.113281 81.359375 299.046875 81.328125 C 298.976562 81.300781 298.894531 81.277344 298.824219 81.25 C 298.746094 81.230469 298.664062 81.199219 298.574219 81.179688 C 298.515625 81.160156 298.445312 81.160156 298.375 81.148438 C 298.273438 81.128906 298.183594 81.117188 298.085938 81.109375 C 298.074219 81.109375 298.054688 81.109375 298.035156 81.109375 C 292.914062 81.050781 287.773438 80.789062 282.734375 80.359375 C 272.503906 53.480469 251.203125 30.910156 225.453125 19.800781 C 219.796875 17.359375 213.84375 15.441406 207.796875 14.070312 C 181.324219 -0.0390625 150.285156 -3.75 122.59375 3.917969 C 82.824219 14.929688 50.292969 49.398438 41.265625 89.910156 L 2.957031 108.671875 C 2.804688 108.648438 2.65625 108.628906 2.496094 108.628906 C 2.386719 108.628906 2.273438 108.640625 2.164062 108.648438 C 2.15625 108.648438 2.144531 108.648438 2.136719 108.660156 C 2.015625 108.671875 1.886719 108.699219 1.773438 108.738281 C 1.675781 108.757812 1.585938 108.800781 1.503906 108.839844 C 1.476562 108.851562 1.445312 108.859375 1.425781 108.878906 C 1.316406 108.921875 1.207031 108.980469 1.113281 109.050781 C 0.90625 109.191406 0.722656 109.351562 0.574219 109.539062 C 0.496094 109.628906 0.425781 109.738281 0.355469 109.839844 C 0.355469 109.851562 0.355469 109.851562 0.355469 109.851562 C 0.285156 109.960938 0.234375 110.078125 0.183594 110.199219 C 0.144531 110.277344 0.113281 110.367188 0.09375 110.449219 C 0.0546875 110.589844 0.0234375 110.738281 0.015625 110.890625 C -0.00390625 111.027344 -0.00390625 111.160156 0.015625 111.300781 C 0.015625 111.351562 0.015625 111.410156 0.0234375 111.46875 C 15.394531 223.140625 25.273438 336.910156 29.40625 449.601562 C 29.40625 449.628906 29.40625 449.660156 29.40625 449.691406 C 29.40625 449.761719 29.414062 449.828125 29.425781 449.898438 C 29.433594 449.96875 29.445312 450.027344 29.457031 450.101562 C 29.484375 450.230469 29.515625 450.359375 29.574219 450.488281 C 29.605469 450.589844 29.644531 450.679688 29.695312 450.769531 C 29.746094 450.859375 29.792969 450.941406 29.855469 451.027344 C 29.957031 451.167969 30.074219 451.308594 30.207031 451.429688 C 30.246094 451.46875 30.292969 451.511719 30.34375 451.550781 C 30.40625 451.601562 30.464844 451.648438 30.535156 451.691406 C 30.542969 451.699219 30.566406 451.707031 30.574219 451.71875 C 51.675781 465.570312 72.785156 479.429688 93.886719 493.289062 C 93.925781 493.320312 93.972656 493.351562 94.015625 493.378906 C 94.035156 493.390625 94.042969 493.398438 94.066406 493.410156 C 94.15625 493.46875 94.246094 493.519531 94.34375 493.558594 C 94.433594 493.609375 94.535156 493.640625 94.636719 493.667969 C 94.664062 493.691406 94.707031 493.699219 94.746094 493.699219 C 94.824219 493.730469 94.90625 493.75 94.996094 493.761719 C 95.125 493.777344 95.253906 493.789062 95.386719 493.789062 C 95.484375 493.789062 95.585938 493.777344 95.683594 493.769531 L 96.542969 493.691406 C 96.554688 493.691406 96.566406 493.691406 96.574219 493.691406 C 183.773438 486.167969 271.34375 472.859375 356.886719 454.148438 C 356.894531 454.148438 356.914062 454.148438 356.925781 454.148438 C 357.125 454.109375 357.316406 454.058594 357.503906 453.980469 C 357.636719 453.929688 357.765625 453.859375 357.886719 453.777344 C 357.984375 453.71875 358.085938 453.648438 358.175781 453.570312 C 358.363281 453.410156 358.535156 453.21875 358.664062 453 C 358.703125 452.949219 358.734375 452.890625 358.765625 452.828125 C 358.804688 452.75 358.84375 452.667969 358.875 452.578125 C 358.90625 452.527344 358.925781 452.480469 358.933594 452.417969 C 358.964844 452.339844 358.984375 452.25 358.996094 452.160156 C 359.015625 452.101562 359.023438 452.039062 359.023438 451.96875 C 359.035156 451.941406 359.046875 451.898438 359.035156 451.851562 C 359.054688 451.75 359.054688 451.648438 359.046875 451.550781 C 359.046875 451.5 359.046875 451.449219 359.035156 451.410156" fill="#938eb6"/></g><g id="change1_2"><path d="M 9.425781 111.070312 L 13.335938 112.550781 C 24.375 116.71875 35.414062 120.898438 46.457031 125.078125 C 55.472656 121.828125 64.722656 119.007812 74.003906 116.660156 L 43.195312 94.527344 Z M 83.375 378.050781 C 73.984375 294.628906 60.894531 211.441406 44.265625 129.589844 C 33.363281 125.46875 22.464844 121.351562 11.566406 117.230469 L 5.542969 114.949219 C 20.566406 225.058594 30.253906 337.148438 34.355469 448.21875 C 54.085938 461.167969 73.824219 474.140625 93.554688 487.101562 C 90.914062 451.328125 87.585938 415.519531 83.566406 379.75 C 83.515625 379.179688 83.445312 378.617188 83.375 378.050781 Z M 123.925781 8.738281 C 86.023438 19.230469 55.015625 52 46.246094 90.570312 L 77.503906 113.007812 C 78.972656 80.699219 95.613281 49.589844 121.726562 30.917969 C 141.066406 17.078125 165.523438 10.277344 189.726562 11.558594 C 168.304688 3.980469 145.085938 2.878906 123.925781 8.738281 Z M 296.886719 86.078125 C 292.753906 86.019531 288.636719 85.828125 284.554688 85.527344 C 285.976562 89.917969 287.09375 94.390625 287.894531 98.890625 C 295.285156 99.351562 302.675781 99.808594 310.074219 100.269531 C 305.59375 95.601562 301.183594 90.851562 296.886719 86.078125 Z M 313.945312 282.828125 C 313.425781 283.609375 312.40625 284.089844 311.464844 283.777344 C 308.414062 282.738281 305.355469 281.710938 302.304688 280.667969 C 298.425781 279.351562 294.753906 276.890625 291.136719 280.179688 C 290.953125 280.339844 290.773438 280.519531 290.59375 280.710938 C 289.835938 281.527344 289.125 282.441406 288.453125 283.410156 C 288.054688 283.988281 287.664062 284.589844 287.285156 285.210938 C 286.136719 287.050781 285.074219 289.011719 283.976562 290.859375 C 288.375 289.71875 292.996094 288.878906 297.304688 288.761719 C 300.804688 288.648438 303.636719 289.667969 306.375 291.199219 C 311.976562 289.320312 317.746094 287.710938 323.535156 286.378906 C 323.566406 286.328125 323.59375 286.277344 323.636719 286.230469 C 325.796875 283.46875 327.953125 280.699219 330.105469 277.941406 C 332.054688 275.441406 333.996094 272.949219 335.945312 270.460938 L 334.746094 261.089844 C 326.90625 267.46875 319.765625 274.027344 313.945312 282.828125 Z M 337.046875 299.148438 C 336.113281 302.167969 335.195312 305.191406 334.285156 308.21875 C 326.296875 303.859375 318.515625 299.140625 310.933594 294.078125 C 310.773438 293.96875 310.613281 293.859375 310.453125 293.761719 C 315.175781 292.578125 319.886719 291.328125 324.574219 290.050781 C 329.074219 292.578125 333.253906 295.628906 337.046875 299.148438" fill="#d6d9db"/></g></g></svg>