<?xml version="1.0" encoding="UTF-8" standalone="no"?><svg xmlns="http://www.w3.org/2000/svg" xmlns:xlink="http://www.w3.org/1999/xlink" data-name="Layer 1" fill="#c1ff72" height="662.8" preserveAspectRatio="xMidYMid meet" version="1" viewBox="-1.3 -1.0 540.3 662.8" width="540.3" zoomAndPan="magnify"><g id="change1_1"><path d="M435.853,466.82c-15.367,.007-30.612-1.558-45.826-3.584-13.403-1.784-26.792-3.731-40.238-5.112-15.22-1.563-30.446-1.392-45.492,1.949-7.478,1.661-14.662,4.127-21.311,8.001-4.478,2.609-8.553,5.719-11.865,9.744-7.389,8.975-7.709,18.927-.92,28.363,3.218,4.473,7.349,7.969,11.91,10.985,7.204,4.764,15.061,8.153,23.199,10.933,12.731,4.348,25.824,7.33,38.925,10.278,14.956,3.365,29.953,6.571,44.526,11.431,7.422,2.476,14.671,5.356,21.489,9.236,4.657,2.65,9.035,5.691,12.733,9.604,9.452,10.002,12.036,21.543,7.531,34.576-2.432,7.036-6.471,13.144-11.334,18.712-9.892,11.325-22.044,19.548-35.67,25.68-13.843,6.23-28.401,9.821-43.457,11.471-24.726,2.709-49.263,.972-73.692-3.196-26.614-4.541-52.578-11.699-78.41-19.408-14.871-4.438-29.76-8.822-44.966-12.017-12.546-2.636-25.187-4.158-38.027-3.139-20.079,1.593-38.288,8.081-54.008,20.924-2.28,1.863-4.388,3.949-6.469,6.038-.702,.705-1.174,1.695-1.576,2.63-.686,1.596-2.191,1.976-3.162,.545-.533-.786-.845-1.991-.69-2.912,.231-1.369,.737-2.814,1.53-3.941,1.693-2.406,3.459-4.812,5.522-6.896,12.634-12.762,28.028-20.469,45.411-24.42,15.269-3.471,30.608-3.301,45.994-.851,17.073,2.718,33.604,7.589,50.101,12.586,20.321,6.155,40.65,12.265,61.351,17.063,17.378,4.028,34.894,7.168,52.726,8.159,20.646,1.147,41.142,.312,61.167-5.527,17.125-4.994,32.395-13.226,45.05-25.975,3.843-3.872,7.285-8.091,9.786-12.953,1.384-2.691,2.6-5.535,3.41-8.444,1.987-7.138,.344-13.568-4.46-19.191-3.205-3.752-7.189-6.509-11.475-8.859-6.8-3.728-14.054-6.334-21.451-8.567-13.419-4.051-27.157-6.769-40.837-9.731-14.057-3.043-28.088-6.185-41.716-10.871-7.856-2.701-15.459-5.965-22.591-10.26-4.998-3.01-9.666-6.451-13.736-10.658-4.363-4.508-7.797-9.613-9.837-15.583-3.316-9.701-2.17-18.969,2.864-27.804,3.36-5.897,8.037-10.607,13.491-14.573,8.695-6.321,18.476-10.184,28.863-12.625,13.746-3.23,27.695-3.85,41.745-3.151,14.677,.73,29.174,2.96,43.678,5.145,19.707,2.969,39.467,5.278,59.45,4.82,11.761-.269,23.366-1.635,34.646-5.147,6.401-1.993,12.477-4.687,17.977-8.576,3.69-2.61,6.959-5.646,9.316-9.548,3.007-4.975,4.439-10.31,3.353-16.131-1.357-7.272-5.335-12.518-12.205-15.433-5.31-2.253-10.918-3.4-16.609-3.996-8.523-.893-17.07-1.561-25.608-2.313-7.217-.635-14.41-1.417-21.398-3.456-4.606-1.344-8.95-3.239-12.79-6.178-12.229-9.362-13.422-25.786-2.671-36.815,3.725-3.821,8.254-6.408,13.099-8.5,7.204-3.11,14.774-5.029,22.383-6.797,10.015-2.327,20.072-4.48,30.057-6.925,6.387-1.564,12.526-3.905,18.493-6.726,8.186-3.87,13.582-10.026,15.772-18.81,.964-3.865,1.764-7.812,2.154-11.77,.618-6.261-.94-12.16-4.379-17.419-2.183-3.338-4.657-6.5-7.175-9.599-2.281-2.806-4.766-5.451-7.221-8.111-9.176-9.945-13.952-21.897-16.058-35.073-2.008-12.563-.602-24.911,2.644-37.077,2.258-8.464,4.905-16.824,7.314-25.249,.942-3.295,1.755-6.629,2.543-9.965,1.65-6.987,.913-14.026,.352-21.055-.151-1.899-.419-3.791-.515-5.693-.131-2.591,.797-4.607,2.276-4.745,2.114-.197,3.277,1.292,4.165,2.921,6.17,11.327,8.369,23.255,4.981,35.876-1.703,6.343-3.715,12.606-5.696,18.871-2.936,9.284-5.452,18.649-6.287,28.398-.91,10.627,.537,20.911,4.394,30.849,1.632,4.205,3.876,8.076,6.749,11.553,2.306,2.79,4.72,5.49,7.069,8.244,2.226,2.609,4.473,5.201,6.637,7.861,9.5,11.679,12.219,24.904,8.911,39.481-.295,1.3-.631,2.591-.97,3.881-3.195,12.147-10.417,20.959-21.685,26.558-9.368,4.655-19.288,7.613-29.405,10.018-10.559,2.51-21.167,4.821-31.681,7.507-4.405,1.125-8.724,2.757-12.886,4.603-2.649,1.175-5.227,2.857-7.331,4.848-6.614,6.259-5.665,15.172,1.955,20.153,4.562,2.982,9.733,4.432,15.03,5.13,8.776,1.157,17.593,2.014,26.404,2.881,8.439,.831,16.883,1.588,25.075,3.956,1.644,.475,3.268,1.031,4.88,1.609,18.484,6.626,24.256,25.656,19.025,40.735-2.644,7.622-7.366,13.71-13.628,18.665-7.82,6.188-16.763,10.102-26.278,12.821-11.71,3.346-23.71,4.672-35.837,5.05-2.855,.089-5.715,.013-8.573,.013Z"/></g><g id="change2_1"><path d="M36.558,639.081c-2.552-3.555-5.097-7-7.538-10.516-8.571-12.349-16.597-25.027-22.79-38.769-2.646-5.872-5.063-11.862-5.884-18.31-1.617-12.704,2.438-23.482,11.791-32.086,8.253-7.592,18.217-10.449,29.313-9.111,14.902,1.797,27.44,13.287,30.883,27.905,1.913,8.125,.663,15.871-2.078,23.554-3.677,10.304-8.729,19.943-14.56,29.135-5.795,9.135-12.052,17.978-18.113,26.945-.259,.384-.586,.722-1.025,1.255Zm.082-46.001c14.587-.031,26.41-11.929,26.368-26.536-.041-14.418-12.067-26.497-26.254-26.369-14.817,.134-26.614,11.996-26.588,26.733,.026,14.24,12.127,26.203,26.475,26.173Z" fill="#f91515"/></g><g id="change2_2"><path d="M501.325,109.111c-2.552-3.555-5.097-7-7.538-10.516-8.571-12.349-16.597-25.027-22.79-38.769-2.646-5.872-5.063-11.862-5.884-18.31-1.617-12.704,2.438-23.482,11.791-32.086,8.253-7.592,18.217-10.449,29.313-9.111,14.902,1.797,27.44,13.287,30.883,27.905,1.913,8.125,.663,15.871-2.078,23.554-3.677,10.304-8.729,19.943-14.56,29.135-5.795,9.135-12.052,17.978-18.113,26.945-.259,.384-.586,.722-1.025,1.255Zm.082-46.001c14.587-.031,26.41-11.929,26.368-26.536-.041-14.418-12.067-26.497-26.254-26.369-14.817,.134-26.614,11.996-26.588,26.733,.026,14.24,12.127,26.203,26.475,26.173Z" fill="#f91515"/></g></svg>