<?xml version="1.0" encoding="UTF-8"?><svg xmlns="http://www.w3.org/2000/svg" xmlns:xlink="http://www.w3.org/1999/xlink" height="519.9" preserveAspectRatio="xMidYMid meet" version="1.0" viewBox="-3.3 -17.4 988.3 519.9" width="988.3" zoomAndPan="magnify"><g data-name="Layer 2"><g id="change1_1"><path d="M859.07,266.84h0c-9.94,45.19-2.5,92.12,3.45,138,3.51,27,6.42,54.82,5,82-.84,15.65-24.31,15-24.25-.63.14-41.74,15-87.31,7.61-129.29-7.3-41.66-36.25-77.33-42.22-119.2-3.31-23.28-9.66-57.17-32.82-53.11-27.44,4.8-13.61,52.67-34.62,71-14.15,6.36-27.12-11-31.86-25.81S696.89,196.29,681.39,197C659.18,198,662,231.33,668,252.73a163.19,163.19,0,0,1,5.61,55.37c-1.1,15.87-23.83,17.55-27.16,2a268.33,268.33,0,0,1,2.24-122.52c5.8-22.58,9.37-55.11-13.17-61.09C614,120.77,599.81,150,601.9,172.16c1.1,11.75,3.94,24.19,4.48,36,.58,12.81-18.68,14-19.73,1.25-1.61-19.53,1.23-42.11-15.52-48.88-14.2-5.73-29,7.38-36.38,20.79-36.2,65.67,2.55,147.94-.5,222.16-.82,20-29.87,21-32.09,1.12-5.93-53,20.59-118.64-2.78-170.19a18.29,18.29,0,0,0-7.2-8.23c-17-10.11-32.9,19-50.48,13.79-12.18-3.62-13.73-19.71-16.48-32.12-5.13-23.13-24.73-43.68-48.37-45.36s-47.61,19.77-44.67,43.29c1.26,10,6.71,19.09,7.94,29.09l0,.3c1.57,14.44-19.21,18.5-23.55,4.63-4.81-15.33-4.6-32.95-7.74-49.08-4.4-22.68-24.85-47.41-46.36-39-16,6.27-20.57,26.67-20.72,43.89-.51,57.9,20.76,121.47,10,175-5,24.9-41.83,21.37-41.91-4a211.89,211.89,0,0,1,1.48-23.7,1063.61,1063.61,0,0,0,6.55-129.78c-.21-19.15-9.31-45.39-28-41.16-8.23,1.86-13.74,9.7-16.78,17.57-10.21,26.47-1.16,55.88,2.65,84a121.21,121.21,0,0,1,1,21.82c-.85,18.23-28.14,17.49-28.21-.76l-.48-119.15c-.07-18.83-6.35-44.15-25.17-43.61-12.74.37-20.86,13.45-26,25.12A390.34,390.34,0,0,0,65.41,340.09c1.06,15.17-21.47,17.69-23.52,2.63a69.2,69.2,0,0,1-.21-17.17c2.57-21.77,7.59-48-9.14-62.15-4.63-3.92-10.46-6.29-14.79-10.54-14.64-14.38-4.65-38.5-1-58.69,5.76-31.45-6.74-62.94-13.4-94.21S-1.82,30.9,23.54,11.43c37.51-28.8,88.87,3.94,133.17,20.49C256.25,69.11,366,16.8,472.22,20.45,576.71,24,676.29,82.1,780.27,71.11c31.87-3.36,63-13.21,95-14.49s67.2,8.14,85.3,34.58C985,127,959.69,152.93,934,172.53,897.59,200.29,869.9,217.62,859.07,266.84Z" fill="#b00000"/></g></g></svg>