<?xml version="1.0" encoding="UTF-8" standalone="no"?><svg xmlns="http://www.w3.org/2000/svg" xmlns:xlink="http://www.w3.org/1999/xlink" clip-rule="evenodd" fill="#000000" fill-rule="evenodd" height="202.4" preserveAspectRatio="xMidYMid meet" stroke-linejoin="round" stroke-miterlimit="2" version="1" viewBox="36.0 163.3 449.2 202.4" width="449.2" zoomAndPan="magnify"><g><g><path d="M3634.76 0H4134.76V500H3634.76z" fill="none" transform="translate(-3634.37 .18)"/><g id="change1_3"><path d="M138.24,1780.34C126.442,1774.84 62.877,1779.25 72.907,1748.79C79.367,1729.17 112.033,1728.62 128.061,1722.8C148.013,1715.55 154.014,1693.26 172.802,1684.86C198.593,1673.32 229.753,1679.81 256.497,1668.9C268.773,1663.89 287.748,1654.16 288.799,1638.86C289.311,1631.41 280.422,1619.35 285.038,1612.78C295.284,1598.2 348.166,1601.79 363.189,1603.96C373.684,1605.47 400.614,1609.13 404.314,1622.09C408.997,1638.48 350.34,1647.73 372.494,1674.2C390.953,1696.26 435.995,1683.59 443.848,1718.41C455.468,1769.94 353.603,1774.58 323.897,1778.77C312.29,1780.41 291.02,1784.3 287.545,1798.2C283.993,1812.41 304.703,1814.78 313.869,1814.84C344.51,1815.02 374.962,1809.32 405.616,1812.95C414.483,1814.01 441.48,1818.41 434.398,1833.4C423.887,1855.63 380.008,1860.02 359.429,1861.36C329.368,1863.31 299.679,1856.9 269.611,1858.56C247.081,1859.81 222.837,1868.38 200.33,1864.88C183.867,1862.32 172.825,1848.8 157.326,1844C144.926,1840.16 114.905,1843.88 106.655,1832.43C96.075,1817.76 156.299,1790.88 138.24,1780.34Z" fill="#f90006" transform="matrix(-1.14412 0 0 .60561 557.08 -804.611)"/></g><g id="change1_7"><path d="M907.747,1643.43C904.996,1637.76 903.944,1632.24 899.56,1627.2C889.556,1615.72 868.924,1609.19 858.875,1624.45C852.531,1634.08 856.006,1646.71 850.003,1656.24C844.706,1664.64 832.736,1665.9 824.911,1671C821.291,1673.36 817.774,1677.07 818.795,1681.71C820.773,1690.7 834.341,1693.72 841.736,1695.29C865.3,1700.3 889.967,1697.43 913.047,1705.26C922.712,1708.53 936.178,1716.23 934.958,1728.38C932.291,1754.92 898.223,1751.63 880.047,1754.01C874.452,1754.74 868.006,1755.79 863.177,1758.93C861.943,1759.74 859.191,1761.67 859.592,1763.51C860.674,1768.46 874.775,1765.54 877.582,1765.1C898.332,1761.81 917.883,1755.4 939.17,1756.92C954.295,1758 968.201,1763.62 982.946,1766.51C996.899,1769.24 1011.07,1769.04 1025,1766.33C1034.84,1764.41 1050.77,1761.86 1055.13,1751.14C1059.51,1740.39 1043.9,1730.72 1038.71,1723.38C1035.71,1719.14 1033.71,1713.54 1037.45,1709.07C1045.58,1699.34 1065.93,1703.35 1077.04,1701.67C1081.44,1701.01 1088.82,1699.41 1089.57,1693.92C1090.21,1689.17 1084.15,1686.39 1080.6,1685.12C1071.31,1681.77 1061.09,1681.76 1051.55,1679.36C1035.46,1675.31 1020.48,1668.6 1003.92,1666.27C974.884,1662.19 945.449,1663.99 918.334,1651.06" fill="#f90006" transform="matrix(1.09157 0 0 .84408 -771.37 -1177.95)"/></g><g id="change2_5"><path d="M828.315,1621.27C828.352,1621.23 828.404,1621.29 828.464,1621.31C828.641,1621.36 828.84,1621.49 829.035,1621.64C829.459,1621.97 829.852,1622.4 829.948,1622.52C830.691,1623.51 831.218,1624.65 831.607,1625.85C832.024,1627.12 832.273,1628.46 832.437,1629.74C832.847,1632.88 832.552,1636.16 831.587,1639.22C830.697,1642.04 829.221,1644.66 827.152,1646.77C824.676,1649.35 822.157,1650.31 819.554,1650.65C817.867,1650.88 816.144,1650.84 814.368,1650.78C811.765,1650.69 809.058,1650.56 806.22,1650.97C803.458,1651.39 800.788,1652.29 798.237,1653.53C794.327,1655.42 790.704,1658.06 787.419,1660.7C787.222,1660.85 787.155,1661.18 787.27,1661.43C787.385,1661.69 787.638,1661.78 787.835,1661.63C790.631,1659.67 793.663,1657.75 796.869,1656.24C799.905,1654.81 803.095,1653.75 806.402,1653.46C809.157,1653.18 811.771,1653.47 814.288,1653.62C816.171,1653.73 818.002,1653.77 819.789,1653.52C822.78,1653.09 825.648,1651.84 828.443,1648.8C830.705,1646.29 832.294,1643.25 833.183,1640.01C834.132,1636.55 834.303,1632.87 833.706,1629.42C833.467,1628.04 833.132,1626.61 832.617,1625.25C832.12,1623.95 831.467,1622.72 830.584,1621.67C830.421,1621.48 829.602,1620.69 828.921,1620.4C828.461,1620.2 828.051,1620.24 827.809,1620.53C827.651,1620.72 827.637,1621.03 827.776,1621.23C827.916,1621.43 828.157,1621.45 828.315,1621.27Z" fill="#9a0308" transform="matrix(1.09157 0 0 .84408 -768.67 -1176.04)"/></g><g id="change2_4"><path d="M906.607,1629.12C907.252,1629.09 908.222,1629.59 909.302,1630.27C911.615,1631.73 914.365,1634.07 915.584,1634.73C920.075,1637.15 924.633,1639.46 929.285,1641.55C933.888,1643.61 938.58,1645.46 943.367,1647.05C948.759,1648.79 954.152,1650.14 959.569,1651.12C963.2,1651.79 966.841,1652.28 970.488,1652.69C977.295,1653.44 984.127,1653.85 990.996,1654.24C997.779,1654.62 1004.6,1654.94 1011.47,1655.55C1011.7,1655.57 1011.89,1655.36 1011.92,1655.06C1011.94,1654.77 1011.77,1654.51 1011.54,1654.48C1004.68,1653.55 997.87,1652.85 991.09,1652.19C984.256,1651.52 977.462,1650.86 970.689,1649.95C967.08,1649.46 963.479,1648.9 959.879,1648.26C954.531,1647.29 949.184,1646.13 943.844,1644.51C939.074,1643.1 934.4,1641.41 929.798,1639.54C925.126,1637.64 920.532,1635.57 916.006,1633.36C914.782,1632.76 912,1630.57 909.672,1629.24C908.421,1628.52 907.29,1628.06 906.558,1628.14C906.347,1628.16 906.188,1628.39 906.201,1628.66C906.215,1628.94 906.397,1629.14 906.607,1629.12Z" fill="#9a0308" transform="matrix(1.09157 0 0 .84408 -768.67 -1176.04)"/></g><g id="change2_3"><path d="M1109.7,1690.23L1109.7,1690.22C1109.54,1689.55 1111.63,1690.54 1111.85,1690.62C1113.09,1691.07 1114.2,1691.74 1115.12,1692.6C1116.12,1693.52 1116.9,1694.66 1117.41,1695.99C1118.06,1697.64 1117.99,1699.24 1117.45,1700.68C1116.67,1702.75 1114.93,1704.47 1112.89,1705.62C1110.83,1706.81 1108.6,1707.42 1106.3,1707.77C1102.84,1708.31 1099.21,1708.23 1095.75,1708.29C1093.25,1708.39 1090.77,1708.44 1088.29,1708.55C1084.51,1708.73 1080.76,1709.01 1077.07,1709.63C1072.91,1710.33 1068.84,1711.47 1064.87,1713.36C1064.65,1713.45 1064.53,1713.76 1064.61,1714.04C1064.68,1714.32 1064.91,1714.47 1065.13,1714.37C1069.1,1712.81 1073.14,1712.03 1077.22,1711.61C1080.89,1711.24 1084.59,1711.19 1088.33,1711.18C1090.8,1711.18 1093.29,1711.18 1095.79,1711.17C1099.33,1711.06 1103.04,1711.13 1106.58,1710.48C1109.07,1710.02 1111.48,1709.2 1113.68,1707.81C1116.07,1706.28 1118.03,1704.05 1118.87,1701.52C1119.53,1699.53 1119.56,1697.36 1118.59,1695.17C1117.92,1693.66 1116.96,1692.38 1115.76,1691.38C1114.7,1690.52 1113.46,1689.86 1112.07,1689.47C1111.84,1689.4 1110.53,1689.07 1109.8,1689.17C1109.34,1689.23 1109.06,1689.51 1109.01,1689.84C1108.95,1690.1 1109.08,1690.37 1109.28,1690.44C1109.45,1690.49 1109.61,1690.4 1109.7,1690.23ZM1109.7,1690.23C1109.72,1690.18 1109.74,1690.13 1109.75,1690.08C1109.74,1690.13 1109.71,1690.27 1109.7,1690.23Z" fill="#9a0308" transform="matrix(1.09157 0 0 .84408 -768.67 -1176.04)"/></g><g id="change2_1"><path d="M1028.12,1761.03C1026.86,1761.21 1025.57,1761.69 1024.29,1762.32C1021.44,1763.73 1018.61,1765.91 1016.09,1767.11C1013.19,1768.5 1010.09,1769.52 1006.92,1770.22C1003.81,1770.91 1000.62,1771.28 997.473,1771.38C990.886,1771.61 984.445,1771.06 978.063,1770.21C972.007,1769.4 966.009,1768.27 959.998,1767.18C950.978,1765.54 941.935,1763.98 932.69,1763.33C930.291,1763.18 927.85,1763.33 925.391,1763.65C919.828,1764.37 914.179,1765.91 908.74,1766.38C908.512,1766.39 908.336,1766.65 908.348,1766.94C908.359,1767.23 908.553,1767.46 908.781,1767.45C914.234,1767.21 919.924,1765.93 925.507,1765.44C927.896,1765.24 930.264,1765.17 932.585,1765.41C941.769,1766.32 950.72,1768.26 959.681,1770C965.718,1771.17 971.759,1772.25 977.855,1772.97C984.33,1773.73 990.869,1774.04 997.538,1773.63C1000.76,1773.42 1004.02,1772.92 1007.19,1772.1C1010.43,1771.26 1013.57,1770.09 1016.52,1768.55C1019.02,1767.24 1021.8,1764.93 1024.62,1763.39C1025.82,1762.74 1027.03,1762.23 1028.22,1762.01C1028.42,1761.98 1028.57,1761.73 1028.55,1761.46C1028.52,1761.19 1028.33,1761 1028.12,1761.03Z" fill="#9a0308" transform="matrix(1.09157 0 0 .84408 -768.67 -1176.04)"/></g><g id="change2_2"><path d="M918.293,1720.77C918.691,1721.31 919.306,1722.9 919.349,1723.04C919.737,1724.23 919.911,1725.46 919.952,1726.69C919.993,1727.97 919.888,1729.25 919.715,1730.5C919.185,1734.43 917.804,1737.85 915.647,1740.74C913.726,1743.3 911.185,1745.43 908.074,1747.08C904.297,1749.12 900.399,1750.03 896.43,1750.38C893.433,1750.64 890.396,1750.57 887.335,1750.42C884.28,1750.26 881.202,1750.04 878.125,1749.88C873.426,1749.69 868.736,1749.66 864.047,1749.76C857.026,1749.91 850.017,1750.34 842.989,1750.67C842.761,1750.68 842.579,1750.92 842.583,1751.22C842.587,1751.51 842.775,1751.75 843.003,1751.74C850.026,1751.78 857.033,1751.8 864.045,1751.97C868.705,1752.08 873.364,1752.25 878.027,1752.62C881.108,1752.83 884.187,1753.15 887.246,1753.32C890.393,1753.48 893.518,1753.49 896.595,1753.14C900.775,1752.68 904.864,1751.55 908.806,1749.27C912.101,1747.34 914.768,1744.93 916.754,1742.07C919.009,1738.83 920.401,1735.03 920.85,1730.73C920.991,1729.36 921.057,1727.98 920.966,1726.61C920.875,1725.24 920.633,1723.88 920.158,1722.57C920.083,1722.37 918.874,1720.15 918.428,1719.8C918.142,1719.57 917.924,1719.68 917.805,1719.86C917.744,1719.95 917.663,1720.12 917.688,1720.41C917.706,1720.68 917.891,1720.88 918.101,1720.86C918.173,1720.85 918.239,1720.82 918.293,1720.77ZM918.203,1720.66C918.12,1720.57 918.052,1720.56 918.009,1720.64C917.958,1720.74 918.147,1720.68 918.203,1720.66Z" fill="#9a0308" transform="matrix(1.09157 0 0 .84408 -768.67 -1176.04)"/></g><g id="change1_4"><path d="M5153.7,1842.57C5150.65,1841.54 5147.08,1845.76 5146.16,1848.16C5144.18,1853.28 5147.88,1858.14 5152.94,1859.09C5164.25,1861.21 5174.94,1848.08 5161.81,1842.43C5159.48,1841.43 5157.05,1841.54 5154.57,1841.64" fill="#f90006" transform="matrix(1.6501 0 0 .5796 -8310.12 -740.883)"/></g><g id="change1_5"><path d="M5153.7,1842.57C5150.65,1841.54 5147.08,1845.76 5146.16,1848.16C5144.18,1853.28 5147.88,1858.14 5152.94,1859.09C5164.25,1861.21 5174.94,1848.08 5161.81,1842.43C5159.48,1841.43 5157.05,1841.54 5154.57,1841.64" fill="#f90006" transform="matrix(1.6501 0 0 .5796 -8122.42 -751.168)"/></g><g id="change1_1"><path d="M5153.7,1842.57C5150.65,1841.54 5147.08,1845.76 5146.16,1848.16C5144.18,1853.28 5147.88,1858.14 5152.94,1859.09C5164.25,1861.21 5174.94,1848.08 5161.81,1842.43C5159.48,1841.43 5157.05,1841.54 5154.57,1841.64" fill="#f90006" transform="matrix(.55011 0 0 .30272 -2495.39 -228.658)"/></g><g id="change1_8"><path d="M5153.7,1842.57C5150.65,1841.54 5147.08,1845.76 5146.16,1848.16C5144.18,1853.28 5147.88,1858.14 5152.94,1859.09C5164.25,1861.21 5174.94,1848.08 5161.81,1842.43C5159.48,1841.43 5157.05,1841.54 5154.57,1841.64" fill="#f90006" transform="matrix(.55011 0 0 .30272 -2548.32 -228.543)"/></g><g id="change1_9"><path d="M5153.7,1842.57C5150.65,1841.54 5147.08,1845.76 5146.16,1848.16C5144.18,1853.28 5147.88,1858.14 5152.94,1859.09C5164.25,1861.21 5174.94,1848.08 5161.81,1842.43C5159.48,1841.43 5157.05,1841.54 5154.57,1841.64" fill="#f90006" transform="matrix(1.29165 0 0 .44116 -6541.36 -462.95)"/></g><g id="change1_6"><path d="M5153.7,1842.57C5150.65,1841.54 5147.08,1845.76 5146.16,1848.16C5144.18,1853.28 5147.88,1858.14 5152.94,1859.09C5164.25,1861.21 5174.94,1848.08 5161.81,1842.43C5159.48,1841.43 5157.05,1841.54 5154.57,1841.64" fill="#f90006" transform="matrix(1.29165 0 0 .44116 -6562.77 -482.142)"/></g><g id="change1_2"><path d="M5153.7,1842.57C5150.65,1841.54 5147.08,1845.76 5146.16,1848.16C5144.18,1853.28 5147.88,1858.14 5152.94,1859.09C5164.25,1861.21 5174.94,1848.08 5161.81,1842.43C5159.48,1841.43 5157.05,1841.54 5154.57,1841.64" fill="#f90006" transform="matrix(.89533 0 0 .3058 -4407.989 -203.434)"/></g><g id="change1_10"><path d="M5153.7,1842.57C5150.65,1841.54 5147.08,1845.76 5146.16,1848.16C5144.18,1853.28 5147.88,1858.14 5152.94,1859.09C5164.25,1861.21 5174.94,1848.08 5161.81,1842.43C5159.48,1841.43 5157.05,1841.54 5154.57,1841.64" fill="#f90006" transform="matrix(.89533 0 0 .3058 -4446.217 -219.092)"/></g><g id="change1_11"><path d="M5153.7,1842.57C5150.65,1841.54 5147.08,1845.76 5146.16,1848.16C5144.18,1853.28 5147.88,1858.14 5152.94,1859.09C5164.25,1861.21 5174.94,1848.08 5161.81,1842.43C5159.48,1841.43 5157.05,1841.54 5154.57,1841.64" fill="#f90006" transform="matrix(.89533 0 0 .3058 -4370.527 -219.092)"/></g></g></g></svg>